<?xml version="1.0" encoding="UTF-8" standalone="no"?>
<!-- Created with Inkscape (http://www.inkscape.org/) -->

<svg
   xmlns:dc="http://purl.org/dc/elements/1.1/"
   xmlns:cc="http://creativecommons.org/ns#"
   xmlns:rdf="http://www.w3.org/1999/02/22-rdf-syntax-ns#"
   xmlns:svg="http://www.w3.org/2000/svg"
   xmlns="http://www.w3.org/2000/svg"
   xmlns:sodipodi="http://sodipodi.sourceforge.net/DTD/sodipodi-0.dtd"
   xmlns:inkscape="http://www.inkscape.org/namespaces/inkscape"
   width="96.333725mm"
   height="119.69868mm"
   viewBox="0 0 96.333725 119.69868"
   version="1.1"
   id="svg3711"
   enable-background="new"
   inkscape:version="0.92.2 (5c3e80d, 2017-08-06)"
   sodipodi:docname="hammerTime.svg"
   inkscape:export-filename="/home/thoth/git/thalhalla/assets/images/hammerTime.png"
   inkscape:export-xdpi="96"
   inkscape:export-ydpi="96">
  <defs
     id="defs3705">
    <inkscape:path-effect
       effect="skeletal"
       id="path-effect4358"
       is_visible="true"
       pattern="m -450.58417,279.0562 v 9.05704 h 149.62813 v -9.05704 z"
       copytype="single_stretched"
       prop_scale="1"
       scale_y_rel="false"
       spacing="0"
       normal_offset="0"
       tang_offset="0"
       prop_units="false"
       vertical_pattern="false"
       fuse_tolerance="0" />
    <inkscape:path-effect
       effect="skeletal"
       id="path-effect4299"
       is_visible="true"
       pattern="M 0,0 H 1"
       copytype="single_stretched"
       prop_scale="1"
       scale_y_rel="false"
       spacing="0"
       normal_offset="0"
       tang_offset="0"
       prop_units="false"
       vertical_pattern="false"
       fuse_tolerance="0" />
    <inkscape:path-effect
       effect="skeletal"
       id="path-effect4228"
       is_visible="true"
       pattern="M 0,0 H 1"
       copytype="single_stretched"
       prop_scale="1"
       scale_y_rel="false"
       spacing="0"
       normal_offset="0"
       tang_offset="0"
       prop_units="false"
       vertical_pattern="false"
       fuse_tolerance="0" />
    <inkscape:path-effect
       effect="skeletal"
       id="path-effect4197"
       is_visible="true"
       pattern="M 0,0 H 1"
       copytype="single_stretched"
       prop_scale="1"
       scale_y_rel="false"
       spacing="0"
       normal_offset="0"
       tang_offset="0"
       prop_units="false"
       vertical_pattern="false"
       fuse_tolerance="0" />
    <inkscape:path-effect
       effect="skeletal"
       id="path-effect3846"
       is_visible="true"
       pattern="m -117.74884,186.11529 v 8.99785 H 31.226 v -8.99785 z m 0,17.9952 v 8.99785 H 31.226 v -8.99785 z m 0,17.9957 v 8.99735 H 31.226 v -8.99735 z m 0,17.9952 v 8.99785 H 31.226 v -8.99785 z m 0,17.9952 v 8.99785 H 31.226 v -8.99785 z m 0,17.9957 v 8.99784 H 31.226 v -8.99784 z"
       copytype="single_stretched"
       prop_scale="1"
       scale_y_rel="false"
       spacing="0"
       normal_offset="0"
       tang_offset="0"
       prop_units="false"
       vertical_pattern="false"
       fuse_tolerance="0" />
    <filter
       inkscape:collect="always"
       style="color-interpolation-filters:sRGB"
       id="filter5671">
      <feBlend
         inkscape:collect="always"
         mode="screen"
         in2="BackgroundImage"
         id="feBlend5673" />
    </filter>
  </defs>
  <sodipodi:namedview
     id="base"
     pagecolor="#000033"
     bordercolor="#666666"
     borderopacity="1.0"
     inkscape:pageopacity="1"
     inkscape:pageshadow="2"
     inkscape:zoom="1.9186371"
     inkscape:cx="22.706433"
     inkscape:cy="233.13724"
     inkscape:document-units="mm"
     inkscape:current-layer="g5541"
     showgrid="false"
     fit-margin-top="0"
     fit-margin-left="0"
     fit-margin-right="0"
     fit-margin-bottom="0"
     inkscape:window-width="1918"
     inkscape:window-height="1038"
     inkscape:window-x="1024"
     inkscape:window-y="1044"
     inkscape:window-maximized="1" />
  <metadata
     id="metadata3708">
    <rdf:RDF>
      <cc:Work
         rdf:about="">
        <dc:format>image/svg+xml</dc:format>
        <dc:type
           rdf:resource="http://purl.org/dc/dcmitype/StillImage" />
        <dc:title></dc:title>
      </cc:Work>
    </rdf:RDF>
  </metadata>
  <g
     style="display:inline"
     transform="translate(-41.627768,-35.974177)"
     id="g5541"
     inkscape:groupmode="layer"
     inkscape:label="hammer">
    <path
       inkscape:connector-curvature="0"
       id="path5539"
       d="m 89.287408,155.61757 c -0.27199,-0.0968 -2.01452,-1.45394 -3.87228,-3.01591 -10.89943,-9.16401 -22.20991,-13.89821 -37.31611,-15.61933 -2.68606,-0.30603 -5.24094,-0.62528 -5.6775,-0.70943 l -0.79375,-0.15301 v -7.93311 c 0,-7.9317 0.37395,-11.98921 1.58701,-17.21984 0.29995,-1.29335 0.72644,-2.74898 0.94777,-3.23474 0.69833,-1.53267 2.28305,-1.719 13.95758,-1.6411 5.86934,0.0392 10.67153,0.0237 10.67153,-0.0343 0,-0.058 0.56524,-2.79983 1.25611,-6.092959 1.64018,-7.818278 4.03555,-22.094647 4.03555,-24.051844 0,-2.445225 -0.71792,-3.579295 -4.67408,-7.383395 -2.90954,-2.79772 -4.34931,-3.89128 -6.61858,-5.02708 -3.15064,-1.57695 -4.54927,-1.76966 -6.60616,-0.91024 -1.59948,0.66831 -3.10627,0.38599 -3.82929,-0.71747 -1.30564,-1.99266 -1.37881,-15.44899 -0.0975,-17.9293 1.14701,-2.22033 2.7975,-2.57774 5.79033,-1.25387 3.18237,1.40771 7.93913,0.16302 13.28881,-3.47726 1.41354,-0.96188 3.18168,-1.94983 3.92919,-2.19545 1.51274,-0.49707 3.62483,-0.28367 5.18679,0.52405 1.3641,0.7054 2.56988,0.6522 4.21262,-0.18586 1.1738,-0.59883 1.52451,-0.63993 2.32977,-0.27302 0.84486,0.38494 1.00468,0.3465 1.4694,-0.35339 0.66887,-1.00738 1.96575,-1.00738 2.63463,0 0.46349,0.69806 0.62598,0.73767 1.46245,0.35655 0.79762,-0.36342 1.14058,-0.32181 2.25041,0.27302 1.65002,0.88435 2.7786,0.8853 4.72088,0.004 2.846342,-1.29156 4.691722,-0.84803 9.275272,2.22926 3.12375,2.09721 7.39592,3.76271 9.62548,3.75247 0.92789,-0.004 2.3791,-0.32176 3.22491,-0.70556 3.28571,-1.49093 5.28661,-0.56143 6.0053,2.78971 0.51206,2.38765 0.45895,13.15604 -0.075,15.20694 -0.5748,2.20782 -1.80665,2.80719 -4.08868,1.98937 -2.27593,-0.81564 -3.41468,-0.72516 -5.94624,0.47247 -3.26015,1.5423 -5.22129,2.9943 -8.32886,6.16655 -3.10864,3.17334 -3.74463,4.33232 -3.74463,6.823924 0,2.725212 3.31394,21.661545 5.13079,29.318054 l 0.20093,0.84677 8.35845,-0.18849 c 10.02037,-0.22596 14.68577,0.0794 15.62929,1.0229 0.79478,0.79478 1.81835,4.67493 2.57271,9.7526 0.71658,4.82341 0.80479,18.66151 0.12241,19.20531 -0.24253,0.19327 -1.79035,0.45909 -3.43958,0.5907 -11.26949,0.89932 -22.01689,4.1112 -30.2266,9.03327 -3.45107,2.06907 -8.921252,6.0244 -11.173002,8.07889 -1.72708,1.57577 -2.69055,2.11039 -3.36853,1.86914 z m 2.79008,-4.85943 c 3.25751,-2.69467 9.623262,-6.78026 14.552472,-9.3399 7.29293,-3.78705 15.55999,-6.25872 24.8587,-7.43219 1.89686,-0.23938 3.67073,-0.60746 3.94195,-0.81797 0.96153,-0.74625 -0.17356,-19.92246 -1.29821,-21.9321 -0.23174,-0.4141 -0.48428,-0.30784 -1.30546,0.54929 l -1.01814,1.06271 0.59153,3.96976 c 0.32534,2.18336 0.6921,6.12564 0.81502,8.76061 0.24116,5.16943 -0.002,6.32164 -1.33661,6.32164 -1.33183,0 -9.54723,1.80524 -13.85548,3.04457 -7.66846,2.20596 -14.69274,5.63523 -23.994662,11.71423 -2.12698,1.39002 -4.04625,2.52731 -4.26505,2.52731 -0.21881,0 -2.4473,-1.32413 -4.95222,-2.94252 -12.18444,-7.87217 -20.56636,-11.31731 -33.1294,-13.61683 -2.32833,-0.42618 -4.47145,-0.90243 -4.7625,-1.05835 -0.78882,-0.42258 -0.66668,-10.64541 0.18513,-15.49476 l 0.63607,-3.62114 -0.93495,-0.93495 c -0.62921,-0.62921 -1.05142,-0.81849 -1.29111,-0.5788 -1.15881,1.1588 -2.41597,21.43836 -1.37759,22.22226 0.26917,0.2032 2.5374,0.65343 5.04052,1.00051 8.98746,1.24619 15.92581,3.32503 22.94345,6.87422 4.80785,2.43159 11.0955,6.41085 15.01515,9.50262 1.26118,0.9948 2.45293,1.81188 2.64833,1.81574 0.19541,0.004 1.22728,-0.71433 2.29306,-1.59596 z m -0.46007,-6.24079 c 0.5427,-0.23949 2.33611,-1.20925 3.98534,-2.15504 4.592942,-2.63393 11.757922,-6.15912 15.926362,-7.83583 4.547,-1.82898 7.83731,-2.77843 13.88336,-4.00621 l 4.58611,-0.9313 v -6.51741 c 0,-7.14108 -0.30251,-8.65158 -1.80838,-9.02953 -0.46041,-0.11556 -5.48063,-0.15323 -11.15603,-0.0837 l -10.31892,0.12639 v -1.21882 c 0,-0.99946 0.15872,-1.26296 0.88195,-1.46414 0.48507,-0.13492 5.60225,-0.26114 11.37151,-0.28048 l 10.48958,-0.0352 1.15185,-1.02918 c 0.63351,-0.56605 1.03887,-1.14215 0.90079,-1.28023 -0.28119,-0.28119 -16.30698,-0.24958 -19.32762,0.0381 -1.06715,0.10164 -2.15884,0.0371 -2.42597,-0.14333 -0.80566,-0.54431 -4.35527,-16.587239 -5.67109,-25.631222 -0.39521,-2.716389 -0.71942,-6.108244 -0.72047,-7.537456 -0.002,-2.40167 0.089,-2.72244 1.19857,-4.23334 3.07627,-4.18911 9.95089,-9.40724 14.09124,-10.69587 1.99651,-0.62138 2.27261,-0.63049 3.8153,-0.1259 0.91468,0.29917 1.9904,0.54395 2.39051,0.54395 1.02057,0 0.90994,-0.93604 -0.14184,-1.20002 -1.20017,-0.30123 -1.49221,-1.71281 -1.71822,-8.30475 -0.19519,-5.69341 -0.0131,-6.723 1.18882,-6.723 0.80781,0 0.93667,-0.8894 0.17141,-1.18306 -0.28696,-0.11012 -1.19977,0.10754 -2.02847,0.48368 -1.71246,0.77726 -6.23074,0.95105 -8.48076,0.32621 -0.73127,-0.20308 -2.61594,-1.15053 -4.18814,-2.10544 -2.92127,-1.7743 -6.15148,-3.16584 -7.34894,-3.16584 -0.95417,0 -2.479172,0.62782 -2.479172,1.02064 0,0.1829 0.837822,0.32501 1.861822,0.31581 2.08154,-0.0187 4.31703,0.94806 7.68801,3.32479 1.80364,1.27166 2.32038,1.43896 6.28881,2.03607 2.87947,0.43325 4.5497,0.85508 5.00027,1.26284 0.98091,0.88771 1.38189,2.72356 1.38412,6.33705 0.002,3.77858 -0.45693,4.7528 -2.24054,4.7528 -1.34754,0 -1.99083,-0.53575 -1.99083,-1.65805 0,-0.57958 -0.20412,-0.81139 -0.71446,-0.81139 -0.5454,0 -0.99384,0.61306 -1.89511,2.59075 -1.10545,2.42576 -1.95882,3.32431 -2.71393,2.85763 -0.55854,-0.3452 -0.35542,-1.1642 0.91378,-3.68449 1.27571,-2.53322 1.65205,-5.08723 0.79375,-5.38677 -0.24253,-0.0846 -0.94065,0.27988 -1.55136,0.81004 -0.79159,0.68718 -1.80395,1.08471 -3.52608,1.38461 -5.60381,0.97586 -11.099932,3.58887 -14.507302,6.8972 -1.94723,1.89062 -2.42672,2.19524 -2.98506,1.89643 -1.44914,-0.77556 -1.0631,-2.09143 1.45039,-4.94385 2.846,-3.22979 6.29243,-4.75953 13.244142,-5.87861 2.3288,-0.37489 3.91379,-0.79808 4.00412,-1.06909 0.11665,-0.34992 -0.42741,-0.39629 -2.47375,-0.21086 -2.63963,0.2392 -4.15024,-0.11559 -4.15024,-0.97475 0,-0.21739 0.39688,-0.91559 0.88195,-1.55154 0.79751,-1.0456 1.1713,-2.2617 0.69517,-2.2617 -0.10272,0 -0.98582,0.63161 -1.96244,1.40359 -2.33247,1.84371 -4.115692,2.39116 -5.679242,1.74351 -2.74595,-1.13741 -5.08552,-4.23727 -5.52692,-7.32303 -0.12479,-0.87242 -0.40149,-1.64442 -0.61489,-1.71555 -0.62425,-0.20808 -0.9362,9.80728 -0.32496,10.43325 0.39964,0.40927 0.5572,0.32281 1.01106,-0.55486 0.2957,-0.57183 0.79833,-1.25604 1.11696,-1.52048 0.49061,-0.40717 0.63067,-0.40324 0.91477,0.0257 0.53122,0.80203 0.0494,2.46752 -1.30324,4.50495 -0.76265,1.14874 -1.36671,2.59169 -1.55068,3.70416 -0.37319,2.25676 -0.63929,2.95436 -1.21055,3.17357 -0.96353,0.36974 -1.96921,-1.2836 -1.96921,-3.23739 0,-0.52708 -0.72551,-2.17744 -1.61226,-3.66747 -1.0901,-1.83175 -1.57567,-3.01898 -1.4993,-3.66581 0.17307,-1.46583 0.85556,-1.38289 1.92555,0.23398 0.90816,1.37231 1.00205,1.42495 1.45632,0.81647 0.30662,-0.4107 0.41273,-1.10548 0.28791,-1.88514 -0.10872,-0.6791 -0.19942,-2.86191 -0.20156,-4.85069 -0.003,-2.82613 -0.10954,-3.61598 -0.4876,-3.61598 -0.31746,0 -0.56732,0.63658 -0.72695,1.85209 -0.4318,3.28785 -2.96061,6.49767 -5.78603,7.34418 -1.16855,0.35011 -1.58888,0.30915 -2.93419,-0.28594 -0.86363,-0.38203 -2.13875,-1.19376 -2.8336,-1.80385 -1.20727,-1.05999 -2.05952,-1.41188 -2.04576,-0.84467 0.004,0.14552 0.47979,0.96316 1.05834,1.81697 0.57855,0.85382 1.05191,1.68167 1.05191,1.83968 0,0.75406 -1.63218,1.09494 -4.15024,0.86676 -2.04634,-0.18543 -2.59039,-0.13906 -2.47375,0.21086 0.09,0.26993 1.68462,0.70026 4.00412,1.08054 7.44569,1.22073 11.21592,3.06374 13.98331,6.83548 1.68427,2.29553 1.8538,3.36404 0.63705,4.01522 -0.60431,0.32342 -1.00036,0.0707 -2.91041,-1.85719 -1.48772,-1.50161 -3.13407,-2.70442 -5.03314,-3.67718 -2.72557,-1.39611 -8.04796,-3.27976 -9.27862,-3.2838 -1.27225,-0.004 -3.28445,-0.77386 -4.17091,-1.5954 -0.5097,-0.47237 -1.06551,-0.77309 -1.23513,-0.66826 -0.74414,0.45991 -0.27507,3.13784 0.98376,5.61624 1.22484,2.41147 1.38408,3.70494 0.45612,3.70494 -0.66967,0 -1.79899,-1.53669 -2.60368,-3.54289 -0.55809,-1.39139 -0.98229,-1.95584 -1.52999,-2.03581 -0.59991,-0.0876 -0.82046,0.1329 -1.0586,1.05833 -0.25425,0.98802 -0.48027,1.18648 -1.46002,1.28199 -2.10192,0.20491 -2.50431,-0.56074 -2.50431,-4.76513 0,-3.74128 0.41446,-5.48788 1.51975,-6.40451 0.31389,-0.26031 2.46361,-0.75811 4.77714,-1.10621 3.86691,-0.58183 4.38113,-0.75156 6.37109,-2.10291 3.61417,-2.45434 5.37448,-3.19675 7.57978,-3.19675 2.13341,0 2.58389,-0.49004 1.0071,-1.09558 -1.81786,-0.6981 -4.46755,0.25033 -10.67153,3.81978 -2.15991,1.2427 -2.49953,1.32701 -5.84901,1.45201 -3.11564,0.11627 -3.74234,0.0376 -5.06128,-0.63526 -0.82794,-0.42238 -1.72807,-0.68249 -2.0003,-0.57803 -0.74898,0.28741 -0.59563,1.27042 0.19818,1.27042 1.26956,0 1.41148,0.99218 1.08887,7.61237 -0.28621,5.87319 -0.35952,6.34191 -1.08358,6.92822 -0.42713,0.34587 -0.99714,0.62885 -1.26668,0.62885 -0.68022,0 -0.61367,0.60133 0.11145,1.00713 0.4199,0.23499 1.11553,0.13404 2.30379,-0.33433 1.4114,-0.55632 1.97619,-0.60959 3.30534,-0.31172 3.55837,0.79745 8.27724,3.82605 12.36287,7.93457 3.95151,3.97364 4.15098,4.42449 3.89459,8.802733 -0.39904,6.8143 -5.19293,30.901405 -6.29864,31.647825 -0.25899,0.17482 -1.18525,0.23667 -2.05838,0.13744 -2.36235,-0.26849 -19.39643,-0.32425 -19.65634,-0.0643 -0.12329,0.12329 0.22273,0.69062 0.76893,1.26073 l 0.99309,1.03657 11.25343,0.10628 c 12.19399,0.11516 12.05026,0.0903 11.84756,2.04656 l -0.0914,0.88194 -10.62036,-0.12799 c -7.33608,-0.0884 -10.84657,-0.007 -11.35185,0.26349 -0.98385,0.52654 -1.387,2.82213 -1.62468,9.25104 -0.13892,3.75746 -0.0745,5.30203 0.23791,5.70269 0.26293,0.33723 1.95845,0.83714 4.38923,1.29413 9.48579,1.78333 19.00129,5.55236 29.89313,11.84049 4.95593,2.86118 5.81738,3.10371 7.84544,2.20878 z m -35.93088,-15.43958 c -9.372513,17.73006 -4.686257,8.86503 0,0 z m 20.58844,-12.1652 c -3.59796,-1.58795 -2.81591,-8.91361 2.36903,-22.191362 0.21886,-0.560487 0.33756,-1.079447 0.26376,-1.153249 -0.0738,-0.0738 -0.61903,1.019779 -1.21162,2.430177 -1.24859,2.971729 -1.97232,3.308053 -2.13732,0.993225 -0.21042,-2.95209 0.68664,-5.356243 5.99532,-16.067753 1.7309,-3.4925 3.3622,-6.567226 3.62511,-6.832716 0.66469,-0.67122 1.25128,-0.19808 1.25128,1.00927 0,0.842185 0.16335,1.033002 0.96365,1.125709 0.6574,0.07615 1.06228,0.393915 1.27403,0.999899 0.25509,0.730017 -0.19421,2.01846 -2.52189,7.231944 -5.56359,12.461214 -8.08987,19.992236 -8.42675,25.120786 l -0.22424,3.41376 0.92355,-0.72647 c 0.7436,-0.58491 1.27042,-0.69313 2.70372,-0.55541 1.97002,0.18929 2.21103,-0.11782 0.86311,-1.09983 -0.83701,-0.60979 -0.92311,-0.61332 -1.3316,-0.0547 -0.26147,0.35759 -0.7827,0.54842 -1.2989,0.47556 -0.72698,-0.10262 -0.86218,-0.31532 -0.86218,-1.35642 0,-1.01828 0.1274,-1.23108 0.72676,-1.21391 0.67074,0.0192 0.69911,-0.0827 0.36812,-1.3228 -0.2542,-0.95235 -0.2361,-1.92781 0.0622,-3.34972 0.55871,-2.66365 0.97128,-3.02688 1.99402,-1.75556 l 0.80533,1.00106 0.21818,-1.00106 c 0.12,-0.55059 0.32297,-1.39794 0.45105,-1.88301 0.19162,-0.725675 0.14936,-0.803812 -0.23845,-0.440976 -0.82625,0.773046 -1.38855,0.505426 -1.38855,-0.660876 0,-1.282157 2.03824,-7.555339 3.36838,-10.36702 0.94319,-1.993738 1.67135,-2.473314 3.38671,-2.230508 0.72379,0.10245 0.84363,0.337982 0.93932,1.846072 0.10152,1.599999 0.006,1.836264 -1.28755,3.175 -1.2422,1.285874 -3.58463,5.309693 -3.58463,6.157654 0,0.176932 0.29758,0.399514 0.66128,0.494626 0.38332,0.100238 0.90302,0.821923 1.23635,1.716839 0.39817,1.069009 0.51771,1.218369 0.38863,0.485579 -0.10253,-0.582088 -0.28123,-2.019319 -0.39713,-3.193847 -0.18982,-1.92381 -0.12455,-2.235672 0.65838,-3.145881 1.33017,-1.546423 2.03126,-1.045736 2.0695,1.477959 0.044,2.903791 0.43884,5.414319 0.85104,5.411219 0.19403,-10e-4 0.51153,-1.711748 0.70556,-3.800641 0.29208,-3.144488 0.45738,-3.817849 0.9607,-3.913423 0.37981,-0.07212 0.88456,0.323797 1.3452,1.055144 0.73198,1.162149 0.79165,3.184687 0.17504,5.93308 -0.10883,0.48507 0.0139,0.32632 0.27267,-0.352782 0.2588,-0.679097 0.81667,-1.391429 1.23971,-1.582959 0.42305,-0.19153 0.76918,-0.473869 0.76918,-0.627423 0,-0.769108 -2.32747,-4.736849 -3.56822,-6.082904 -1.29583,-1.405805 -1.4026,-1.670808 -1.30289,-3.233589 0.10488,-1.64398 0.14867,-1.706136 1.27818,-1.814555 0.64326,-0.06175 1.42411,0.097 1.73521,0.352778 1.17731,0.967944 4.67994,10.17605 4.67994,12.30317 0,1.102534 -0.58518,1.356224 -1.37772,0.597288 -0.37678,-0.360804 -0.41336,-0.2165 -0.20118,0.793746 0.14262,0.6791 0.37928,1.55223 0.5259,1.94028 0.24866,0.65813 0.29682,0.64035 0.71642,-0.26458 0.69172,-1.49181 1.31716,-1.1698 1.94893,1.00343 0.546262,1.87905 0.551002,3.53529 0.0136,4.75886 -0.18543,0.42222 -0.0477,0.55157 0.563612,0.52916 0.58732,-0.0215 0.84062,0.1932 0.9243,0.78352 0.2238,1.57869 -1.626582,2.53655 -2.361882,1.22265 -0.32356,-0.57817 -0.37657,-0.57817 -1.01544,0 -0.37074,0.33551 -0.86937,0.61002 -1.10808,0.61002 -0.23871,0 -0.32464,0.17696 -0.19097,0.39325 0.14911,0.24126 0.90554,0.3296 1.95709,0.22856 1.15867,-0.11133 1.951342,0.001 2.446422,0.34828 0.40281,0.28214 0.81439,0.43098 0.91461,0.33075 0.10024,-0.10023 0.024,-1.74361 -0.1694,-3.65196 -0.43296,-4.27215 -2.865562,-11.796065 -6.482552,-20.050271 -4.84623,-11.059378 -4.68812,-10.621768 -4.21365,-11.663136 0.34075,-0.747864 0.61057,-0.903848 1.32669,-0.766953 0.78362,0.1498 0.87378,0.07163 0.70287,-0.609356 -0.24524,-0.977092 0.56101,-2.172042 1.19933,-1.777542 0.73739,0.45573 8.778392,17.243562 9.375312,19.573557 0.60933,2.378445 0.55313,4.991882 -0.11205,5.210605 -0.26162,0.08603 -0.81565,-0.725075 -1.37286,-2.009899 -0.51382,-1.184776 -0.98387,-2.104488 -1.04455,-2.043807 -0.0607,0.06068 0.60782,2.168098 1.48557,4.683153 2.78052,7.967189 3.48672,12.179739 2.58574,15.424079 -0.4125,1.48536 -1.4396,2.31556 -3.22278,2.60492 -0.85944,0.13947 -1.33602,0.0311 -1.67859,-0.38166 -0.413142,-0.4978 -0.350772,-0.70963 0.45734,-1.5531 0.51465,-0.53718 0.93602,-1.04738 0.93639,-1.13378 3.5e-4,-0.0864 -1.939232,-0.10752 -4.310212,-0.0469 -3.60079,0.092 -4.37773,0.0187 -4.71673,-0.44488 -0.3613,-0.49411 -0.4544,-0.49652 -0.84826,-0.0219 -0.51295,0.61807 -3.71042,0.74623 -4.07078,0.16317 -0.15782,-0.25536 -0.37453,-0.24881 -0.69982,0.0212 -0.30482,0.25297 -1.97565,0.35245 -4.73176,0.28171 -2.3433,-0.0602 -4.26025,-0.0149 -4.25988,0.10055 3.5e-4,0.11545 0.32515,0.50357 0.72175,0.86249 1.71811,1.55486 -0.0109,2.81429 -2.40999,1.75546 z m 11.2139,-5.96173 c 0,-1.37382 -0.0995,-1.56539 -0.89169,-1.71683 -0.84993,-0.16247 -0.86753,-0.13359 -0.37579,0.61689 0.38376,0.5857 0.4137,0.88954 0.11689,1.18635 -0.2968,0.2968 -0.22315,0.53198 0.2876,0.91826 0.37763,0.2856 0.72628,0.52431 0.77479,0.53049 0.0485,0.006 0.0882,-0.68465 0.0882,-1.53516 z m 5.99722,0.424 c 0,-0.1359 -0.16738,-0.35054 -0.37195,-0.47697 -0.25009,-0.15457 -0.20858,-0.47921 0.12674,-0.99096 0.46222,-0.70544 0.43783,-0.76108 -0.33361,-0.76108 -0.75794,0 -0.83229,0.14998 -0.83229,1.67868 0,1.59038 0.0371,1.65551 0.70555,1.23806 0.38806,-0.24234 0.70556,-0.55182 0.70556,-0.68773 z M 79.716958,91.859718 c 0,-0.194028 -0.15389,-0.114653 -0.34197,0.176389 -0.18809,0.291041 -0.34197,0.687916 -0.34197,0.881944 0,0.194028 0.15388,0.114653 0.34197,-0.176389 0.18808,-0.291041 0.34197,-0.687916 0.34197,-0.881944 z m -2.9278,-5.968061 c -0.11284,-0.294055 0.0427,-1.929035 0.34574,-3.63329 0.3916,-2.202624 0.50097,-4.399294 0.37824,-7.596565 -0.19308,-5.02976 0.0296,-5.45797 1.55872,-2.99798 3.03952,4.889709 3.1358,6.735364 0.60501,11.598646 -1.48522,2.85407 -2.46063,3.74215 -2.88771,2.629189 z m 22.97583,-2.560204 c -1.36266,-2.749959 -1.51523,-3.31326 -1.5049,-5.556249 0.0104,-2.255432 0.14641,-2.729822 1.41111,-4.921282 1.314102,-2.27706 2.051882,-3.03731 2.506422,-2.58277 0.10694,0.10694 0.0119,1.59872 -0.21115,3.31507 -0.33416,2.571005 -0.30895,3.766986 0.14313,6.79045 0.75158,5.026529 0.72861,6.014991 -0.13975,6.014991 -0.51332,0 -1.07423,-0.778514 -2.204862,-3.06021 z m -11.65875,1.973619 c -0.33955,-0.197767 -0.61736,-0.565213 -0.61736,-0.816539 0,-0.734007 1.3104,-1.712842 2.29305,-1.712842 0.98562,0 2.29306,0.97953 2.29306,1.717957 0,1.03246 -2.65669,1.575629 -3.96875,0.811424 z m 0.86968,-3.584416 c -0.51971,-0.626216 0.0168,-1.428041 0.84828,-1.267901 0.8113,0.156242 0.89369,1.475151 0.10168,1.627678 -0.30889,0.05948 -0.73637,-0.102411 -0.94996,-0.359777 z m -0.39993,-6.916894 c -0.52498,-0.98092 -1.08145,-4.86347 -1.08445,-7.56633 -0.002,-2.07686 0.11307,-2.51302 0.86325,-3.26319 0.47625,-0.47625 1.11846,-0.86591 1.42714,-0.86591 0.30868,0 0.9509,0.38966 1.42715,0.86591 0.70841,0.70841 0.86591,1.21709 0.86591,2.79669 0,2.42429 -0.65594,7.22719 -1.10047,8.0578 -0.43947,0.821155 -1.95414,0.805386 -2.39853,-0.025 z m -5.0313,-5.47222 c -0.57712,-0.72328 -2.49177,-1.95775 -5.2381,-3.37726 -4.67232,-2.41501 -6.77836,-4.04155 -7.34771,-5.67478 -0.57931,-1.66181 0.12368,-1.54944 1.99145,0.31832 1.26632,1.26632 2.9399,2.32642 6.18844,3.91995 3.45184,1.69325 4.61321,2.44389 5.16669,3.33945 1.32411,2.14245 0.7147,3.32346 -0.76077,1.47432 z m 11.00106,0.4363 c 0.003,-1.87748 1.15414,-2.91534 5.789632,-5.21964 3.12546,-1.55368 5.00593,-2.74285 6.24348,-3.94826 0.97401,-0.94872 1.83973,-1.72494 1.9238,-1.72494 0.0841,0 0.15288,0.39641 0.15288,0.88092 0,1.58349 -2.16441,3.44716 -6.76518,5.82518 -2.371502,1.22577 -4.994492,2.85794 -5.828872,3.62705 -1.4399,1.32725 -1.51699,1.35572 -1.51574,0.55969 z m -11.94082,-5.79024 c -2.61001,-0.56646 -4.77702,-1.55205 -6.603,-3.00315 -2.4206,-1.92366 -4.18101,-4.92168 -2.88995,-4.92168 1.21062,0 6.16823,1.98987 7.99222,3.20788 2.22967,1.48892 4.80232,4.32688 4.4456,4.90407 -0.25848,0.41823 -0.11315,0.42746 -2.94487,-0.18712 z m 11.39932,0.17125 c -0.28047,-0.45382 1.61468,-2.8313 3.35674,-4.21103 2.1778,-1.72486 8.792142,-4.38838 9.396602,-3.78392 0.72837,0.72836 -2.38789,4.53405 -4.93494,6.02672 -2.265942,1.32793 -7.413272,2.62373 -7.818402,1.96823 z m -9.32128,-23.13204 c 0.38451,-1.01135 -0.0603,-1.89737 -0.95253,-1.89737 -0.72036,0 -0.98151,0.96927 -0.52884,1.96278 0.50777,1.11441 1.04177,1.09083 1.48137,-0.0654 z m 11.78228,-0.25232 c 0.4087,-1.1564 -0.11788,-1.81696 -1.17975,-1.47993 -0.81774,0.25954 -0.93883,0.92286 -0.36441,1.99618 0.48159,0.89986 1.11899,0.68676 1.54416,-0.51625 z"
       style="fill:#00ff00;stroke-width:0.35277775"
       sodipodi:nodetypes="cccccscccscscccccsccccccccccsccscccssccscccsccccccsccccscsccssccscsccscccccssccscccsccccsccsccccsccscccssssccscsssccsccccccsccscsccccsccccccsccccccsccccccscccscccccccsscccscccscscccssssccscscccccscccccccscccccccccscsccssccscccscccccsccsscccscccccscscscccsccccsscccccccccsccccscccccscscccccccccccccccccsccsccssccsscsscscsccccscccssccsccsssccccccccsssscccsccccccccsssccscsccscccsccscccacca" />
  </g>
  <g
     inkscape:groupmode="layer"
     id="layer6"
     inkscape:label="knot"
     style="display:inline;filter:url(#filter5671)">
    <g
       id="g5499"
       transform="matrix(0.03054449,0.03054449,-0.03054449,0.03054449,72.141741,93.355285)">
      <g
         id="g5437">
        <g
           id="g5291"
           transform="translate(-77.660188,94.043662)"
           style="fill:#00ff00;stroke:none">
          <path
             inkscape:connector-curvature="0"
             id="path5244"
             transform="scale(0.26458333)"
             d="m -1702.9961,146 c -262.7766,11.34589 -460.5994,209.17078 -471.9453,471.94727 11.3459,262.77654 209.1688,460.60133 471.9453,471.94723 5.4134,-0.2337 10.7971,-0.5543 16.1543,-0.9453 h -16.1191 v -0.018 h 503.1171 v -34.2304 h -503.1523 v 0.8633 c -241.9543,-9.283 -428.3361,-195.66489 -437.6191,-437.61919 9.2829,-241.95431 195.6648,-428.33603 437.6191,-437.61914 241.9381,9.28239 428.3111,195.6397 437.6172,437.57031 h -0.8125 v 94.47071 h 34.2324 v -94.43946 h 0.018 v 15.42969 c 0.3662,-5.11259 0.6696,-10.24839 0.8926,-15.41211 C -1242.3949,355.17067 -1440.2195,157.34588 -1702.9961,146 Z m 436.8047,942.9492 v 34.2305 h 34.2324 v -34.2305 z"
             style="fill:#00ff00;stroke:none;stroke-width:0.6414144" />
          <path
             inkscape:connector-curvature="0"
             id="path5242"
             transform="scale(0.26458333)"
             d="m -1702.9961,214.65625 c -221.1318,7.22011 -396.0709,182.15929 -403.291,403.29102 7.2201,221.13178 182.1593,396.07093 403.291,403.29103 0.012,-4e-4 0.023,0 0.035,0 v -0.7695 h 503.1171 v -34.23247 h -503.1523 v 0.67578 c -200.3096,-5.15724 -363.8056,-168.65331 -368.9629,-368.96289 5.1572,-200.3096 168.6533,-363.8056 368.9629,-368.96289 200.2921,5.15675 363.7781,168.62457 368.9629,368.91015 h -0.6211 v 94.47071 h 34.2305 v -94.43555 h 0.7187 c -7.2288,-221.1235 -182.1651,-396.05354 -403.291,-403.27344 z m 368.3418,874.29295 v 34.2305 h 34.2305 v -34.2305 z"
             style="fill:#00ff00;stroke:none;stroke-width:0.6414144" />
          <path
             inkscape:connector-curvature="0"
             id="path5240"
             transform="scale(0.26458333)"
             d="m -1702.9961,283.3125 c -179.4875,3.09436 -331.5404,155.14735 -334.6348,334.63477 3.0944,179.48743 155.1474,331.54238 334.6348,334.63671 0.012,-2e-4 0.023,2.1e-4 0.035,0 v -0.57812 h 503.1171 v -34.23242 h -503.1523 v 0.48242 c -158.6648,-1.03143 -299.2752,-141.64378 -300.3066,-300.30859 1.0314,-158.66484 141.6418,-299.27514 300.3066,-300.30665 158.6479,1.03133 299.2475,141.61175 300.3086,300.25586 h -0.4297 v 94.47071 h 34.2305 v -94.4375 h 0.5273 c -3.1039,-179.4798 -155.1551,-331.52295 -334.6367,-334.61719 z m 299.8789,805.6367 v 34.2305 h 34.2305 v -34.2305 z"
             style="fill:#00ff00;stroke:none;stroke-width:0.6414144" />
          <path
             inkscape:connector-curvature="0"
             id="path5238"
             transform="scale(0.26458333)"
             d="m -1702.9961,351.9668 c -137.8427,-1.03143 -267.01,128.13781 -265.9785,265.98047 -1.0314,137.84267 128.1358,267.0119 265.9785,265.98046 0.012,9e-5 0.023,-8e-5 0.035,0 v -0.38476 h 503.1171 v -34.23242 h -503.1523 v 0.28906 c -117.0201,3.09434 -234.7447,-114.6323 -231.6504,-231.65234 -3.0944,-117.02007 114.6303,-234.74665 231.6504,-231.65235 117.0031,-3.09392 234.7114,114.59818 231.6523,231.60156 h -0.2382 v 94.47071 h 34.2324 v -94.4375 h 0.334 c 1.0203,-137.8361 -128.1437,-266.9943 -265.9805,-265.96289 z m 231.4141,736.9824 v 34.2305 h 34.2324 v -34.2305 z"
             style="fill:#00ff00;stroke:none;stroke-width:0.6414144" />
          <path
             inkscape:connector-curvature="0"
             id="path5236"
             transform="scale(0.26458333)"
             d="m -1712.0391,420.46289 c -93.6874,1.63638 -193.2773,104.29263 -188.2812,197.48438 -5.1572,96.19791 101.1263,202.48146 197.3242,197.32421 0.012,6.3e-4 0.024,9.6e-4 0.035,0.002 v -0.19336 h 503.1171 V 780.8477 h -503.1523 v 0.0957 c -75.3758,7.22011 -170.2162,-87.62035 -162.9961,-162.99609 -7.2201,-75.37577 87.6203,-170.21617 162.9961,-162.9961 75.359,-7.21849 170.1748,87.57771 163.002,162.94531 h -0.049 v 94.47071 h 34.2305 v -94.4375 h 0.1406 c 5.1434,-96.19332 -101.1321,-202.46357 -197.3242,-197.30664 -3.0062,-0.16117 -6.0208,-0.21295 -9.043,-0.16016 z m 171.9961,668.48631 v 34.2305 h 34.2305 v -34.2305 z"
             style="fill:#00ff00;stroke:none;stroke-width:0.6414144" />
          <path
             inkscape:connector-curvature="0"
             id="path5234"
             transform="scale(0.26458333)"
             d="m -1710.8438,488.57227 c -54.3187,-0.82077 -129.6681,77.379 -120.8203,129.375 -9.2829,54.55315 74.1148,137.95098 128.668,128.66796 0.012,0.002 0.024,0.004 0.035,0.006 v -0.006 h 503.1171 v -32.13085 h -503.1171 v -2.11719 h 0.2324 c -0.088,-0.0284 -0.18,-0.0487 -0.2676,-0.0781 -33.731,11.34588 -105.6857,-60.6108 -94.3398,-94.34179 -11.346,-33.731 60.6088,-105.68573 94.3398,-94.33985 33.731,-11.34591 105.6877,60.60885 94.3418,94.33985 0.048,0.14185 0.084,0.28844 0.1289,0.43164 v -0.44922 h 0.018 v 94.4375 h 34.2324 v -94.47071 h -0.045 c 9.2234,-54.55412 -74.1393,-137.89735 -128.6758,-128.61718 -2.5572,-0.43514 -5.1762,-0.66667 -7.8477,-0.70703 z m 102.336,600.37693 v 34.2305 h 34.2324 v -34.2305 z"
             style="fill:#00ff00;stroke:none;stroke-width:0.6414144" />
        </g>
        <g
           id="g5305"
           transform="rotate(90,-403.02872,305.08444)"
           style="fill:#00ff00;stroke:none">
          <path
             style="fill:#00ff00;stroke:none;stroke-width:0.6414144"
             d="m -1702.9961,146 c -262.7766,11.34589 -460.5994,209.17078 -471.9453,471.94727 11.3459,262.77654 209.1688,460.60133 471.9453,471.94723 5.4134,-0.2337 10.7971,-0.5543 16.1543,-0.9453 h -16.1191 v -0.018 h 503.1171 v -34.2304 h -503.1523 v 0.8633 c -241.9543,-9.283 -428.3361,-195.66489 -437.6191,-437.61919 9.2829,-241.95431 195.6648,-428.33603 437.6191,-437.61914 241.9381,9.28239 428.3111,195.6397 437.6172,437.57031 h -0.8125 v 94.47071 h 34.2324 v -94.43946 h 0.018 v 15.42969 c 0.3662,-5.11259 0.6696,-10.24839 0.8926,-15.41211 C -1242.3949,355.17067 -1440.2195,157.34588 -1702.9961,146 Z m 436.8047,942.9492 v 34.2305 h 34.2324 v -34.2305 z"
             transform="scale(0.26458333)"
             id="path5293"
             inkscape:connector-curvature="0" />
          <path
             style="fill:#00ff00;stroke:none;stroke-width:0.6414144"
             d="m -1702.9961,214.65625 c -221.1318,7.22011 -396.0709,182.15929 -403.291,403.29102 7.2201,221.13178 182.1593,396.07093 403.291,403.29103 0.012,-4e-4 0.023,0 0.035,0 v -0.7695 h 503.1171 v -34.23247 h -503.1523 v 0.67578 c -200.3096,-5.15724 -363.8056,-168.65331 -368.9629,-368.96289 5.1572,-200.3096 168.6533,-363.8056 368.9629,-368.96289 200.2921,5.15675 363.7781,168.62457 368.9629,368.91015 h -0.6211 v 94.47071 h 34.2305 v -94.43555 h 0.7187 c -7.2288,-221.1235 -182.1651,-396.05354 -403.291,-403.27344 z m 368.3418,874.29295 v 34.2305 h 34.2305 v -34.2305 z"
             transform="scale(0.26458333)"
             id="path5295"
             inkscape:connector-curvature="0" />
          <path
             style="fill:#00ff00;stroke:none;stroke-width:0.6414144"
             d="m -1702.9961,283.3125 c -179.4875,3.09436 -331.5404,155.14735 -334.6348,334.63477 3.0944,179.48743 155.1474,331.54238 334.6348,334.63671 0.012,-2e-4 0.023,2.1e-4 0.035,0 v -0.57812 h 503.1171 v -34.23242 h -503.1523 v 0.48242 c -158.6648,-1.03143 -299.2752,-141.64378 -300.3066,-300.30859 1.0314,-158.66484 141.6418,-299.27514 300.3066,-300.30665 158.6479,1.03133 299.2475,141.61175 300.3086,300.25586 h -0.4297 v 94.47071 h 34.2305 v -94.4375 h 0.5273 c -3.1039,-179.4798 -155.1551,-331.52295 -334.6367,-334.61719 z m 299.8789,805.6367 v 34.2305 h 34.2305 v -34.2305 z"
             transform="scale(0.26458333)"
             id="path5297"
             inkscape:connector-curvature="0" />
          <path
             style="fill:#00ff00;stroke:none;stroke-width:0.6414144"
             d="m -1702.9961,351.9668 c -137.8427,-1.03143 -267.01,128.13781 -265.9785,265.98047 -1.0314,137.84267 128.1358,267.0119 265.9785,265.98046 0.012,9e-5 0.023,-8e-5 0.035,0 v -0.38476 h 503.1171 v -34.23242 h -503.1523 v 0.28906 c -117.0201,3.09434 -234.7447,-114.6323 -231.6504,-231.65234 -3.0944,-117.02007 114.6303,-234.74665 231.6504,-231.65235 117.0031,-3.09392 234.7114,114.59818 231.6523,231.60156 h -0.2382 v 94.47071 h 34.2324 v -94.4375 h 0.334 c 1.0203,-137.8361 -128.1437,-266.9943 -265.9805,-265.96289 z m 231.4141,736.9824 v 34.2305 h 34.2324 v -34.2305 z"
             transform="scale(0.26458333)"
             id="path5299"
             inkscape:connector-curvature="0" />
          <path
             style="fill:#00ff00;stroke:none;stroke-width:0.6414144"
             d="m -1712.0391,420.46289 c -93.6874,1.63638 -193.2773,104.29263 -188.2812,197.48438 -5.1572,96.19791 101.1263,202.48146 197.3242,197.32421 0.012,6.3e-4 0.024,9.6e-4 0.035,0.002 v -0.19336 h 503.1171 V 780.8477 h -503.1523 v 0.0957 c -75.3758,7.22011 -170.2162,-87.62035 -162.9961,-162.99609 -7.2201,-75.37577 87.6203,-170.21617 162.9961,-162.9961 75.359,-7.21849 170.1748,87.57771 163.002,162.94531 h -0.049 v 94.47071 h 34.2305 v -94.4375 h 0.1406 c 5.1434,-96.19332 -101.1321,-202.46357 -197.3242,-197.30664 -3.0062,-0.16117 -6.0208,-0.21295 -9.043,-0.16016 z m 171.9961,668.48631 v 34.2305 h 34.2305 v -34.2305 z"
             transform="scale(0.26458333)"
             id="path5301"
             inkscape:connector-curvature="0" />
          <path
             style="fill:#00ff00;stroke:none;stroke-width:0.6414144"
             d="m -1710.8438,488.57227 c -54.3187,-0.82077 -129.6681,77.379 -120.8203,129.375 -9.2829,54.55315 74.1148,137.95098 128.668,128.66796 0.012,0.002 0.024,0.004 0.035,0.006 v -0.006 h 503.1171 v -32.13085 h -503.1171 v -2.11719 h 0.2324 c -0.088,-0.0284 -0.18,-0.0487 -0.2676,-0.0781 -33.731,11.34588 -105.6857,-60.6108 -94.3398,-94.34179 -11.346,-33.731 60.6088,-105.68573 94.3398,-94.33985 33.731,-11.34591 105.6877,60.60885 94.3418,94.33985 0.048,0.14185 0.084,0.28844 0.1289,0.43164 v -0.44922 h 0.018 v 94.4375 h 34.2324 v -94.47071 h -0.045 c 9.2234,-54.55412 -74.1393,-137.89735 -128.6758,-128.61718 -2.5572,-0.43514 -5.1762,-0.66667 -7.8477,-0.70703 z m 104.4356,600.37693 v 34.2305 h 32.1328 v -34.2305 z"
             transform="scale(0.26458333)"
             id="path5303"
             inkscape:connector-curvature="0"
             sodipodi:nodetypes="ccccccccccccccccccccccccccccc" />
        </g>
      </g>
      <g
         transform="matrix(1,0,0,-1,0,780.84906)"
         id="g5467">
        <g
           style="fill:#00ff00;stroke:none"
           transform="translate(-77.660188,94.043662)"
           id="g5451">
          <path
             style="fill:#00ff00;stroke:none;stroke-width:0.6414144"
             d="m -1702.9961,146 c -262.7766,11.34589 -460.5994,209.17078 -471.9453,471.94727 11.3459,262.77654 209.1688,460.60133 471.9453,471.94723 5.4134,-0.2337 10.7971,-0.5543 16.1543,-0.9453 h -16.1191 v -0.018 h 503.1171 v -34.2304 h -503.1523 v 0.8633 c -241.9543,-9.283 -428.3361,-195.66489 -437.6191,-437.61919 9.2829,-241.95431 195.6648,-428.33603 437.6191,-437.61914 241.9381,9.28239 428.3111,195.6397 437.6172,437.57031 h -0.8125 v 94.47071 h 34.2324 v -94.43946 h 0.018 v 15.42969 c 0.3662,-5.11259 0.6696,-10.24839 0.8926,-15.41211 C -1242.3949,355.17067 -1440.2195,157.34588 -1702.9961,146 Z m 436.8047,942.9492 v 34.2305 h 34.2324 v -34.2305 z"
             transform="scale(0.26458333)"
             id="path5439"
             inkscape:connector-curvature="0" />
          <path
             style="fill:#00ff00;stroke:none;stroke-width:0.6414144"
             d="m -1702.9961,214.65625 c -221.1318,7.22011 -396.0709,182.15929 -403.291,403.29102 7.2201,221.13178 182.1593,396.07093 403.291,403.29103 0.012,-4e-4 0.023,0 0.035,0 v -0.7695 h 503.1171 v -34.23247 h -503.1523 v 0.67578 c -200.3096,-5.15724 -363.8056,-168.65331 -368.9629,-368.96289 5.1572,-200.3096 168.6533,-363.8056 368.9629,-368.96289 200.2921,5.15675 363.7781,168.62457 368.9629,368.91015 h -0.6211 v 94.47071 h 34.2305 v -94.43555 h 0.7187 c -7.2288,-221.1235 -182.1651,-396.05354 -403.291,-403.27344 z m 368.3418,874.29295 v 34.2305 h 34.2305 v -34.2305 z"
             transform="scale(0.26458333)"
             id="path5441"
             inkscape:connector-curvature="0" />
          <path
             style="fill:#00ff00;stroke:none;stroke-width:0.6414144"
             d="m -1702.9961,283.3125 c -179.4875,3.09436 -331.5404,155.14735 -334.6348,334.63477 3.0944,179.48743 155.1474,331.54238 334.6348,334.63671 0.012,-2e-4 0.023,2.1e-4 0.035,0 v -0.57812 h 503.1171 v -34.23242 h -503.1523 v 0.48242 c -158.6648,-1.03143 -299.2752,-141.64378 -300.3066,-300.30859 1.0314,-158.66484 141.6418,-299.27514 300.3066,-300.30665 158.6479,1.03133 299.2475,141.61175 300.3086,300.25586 h -0.4297 v 94.47071 h 34.2305 v -94.4375 h 0.5273 c -3.1039,-179.4798 -155.1551,-331.52295 -334.6367,-334.61719 z m 299.8789,805.6367 v 34.2305 h 34.2305 v -34.2305 z"
             transform="scale(0.26458333)"
             id="path5443"
             inkscape:connector-curvature="0" />
          <path
             style="fill:#00ff00;stroke:none;stroke-width:0.6414144"
             d="m -1702.9961,351.9668 c -137.8427,-1.03143 -267.01,128.13781 -265.9785,265.98047 -1.0314,137.84267 128.1358,267.0119 265.9785,265.98046 0.012,9e-5 0.023,-8e-5 0.035,0 v -0.38476 h 503.1171 v -34.23242 h -503.1523 v 0.28906 c -117.0201,3.09434 -234.7447,-114.6323 -231.6504,-231.65234 -3.0944,-117.02007 114.6303,-234.74665 231.6504,-231.65235 117.0031,-3.09392 234.7114,114.59818 231.6523,231.60156 h -0.2382 v 94.47071 h 34.2324 v -94.4375 h 0.334 c 1.0203,-137.8361 -128.1437,-266.9943 -265.9805,-265.96289 z m 231.4141,736.9824 v 34.2305 h 34.2324 v -34.2305 z"
             transform="scale(0.26458333)"
             id="path5445"
             inkscape:connector-curvature="0" />
          <path
             style="fill:#00ff00;stroke:none;stroke-width:0.6414144"
             d="m -1712.0391,420.46289 c -93.6874,1.63638 -193.2773,104.29263 -188.2812,197.48438 -5.1572,96.19791 101.1263,202.48146 197.3242,197.32421 0.012,6.3e-4 0.024,9.6e-4 0.035,0.002 v -0.19336 h 503.1171 V 780.8477 h -503.1523 v 0.0957 c -75.3758,7.22011 -170.2162,-87.62035 -162.9961,-162.99609 -7.2201,-75.37577 87.6203,-170.21617 162.9961,-162.9961 75.359,-7.21849 170.1748,87.57771 163.002,162.94531 h -0.049 v 94.47071 h 34.2305 v -94.4375 h 0.1406 c 5.1434,-96.19332 -101.1321,-202.46357 -197.3242,-197.30664 -3.0062,-0.16117 -6.0208,-0.21295 -9.043,-0.16016 z m 171.9961,668.48631 v 34.2305 h 34.2305 v -34.2305 z"
             transform="scale(0.26458333)"
             id="path5447"
             inkscape:connector-curvature="0" />
          <path
             style="fill:#00ff00;stroke:none;stroke-width:0.6414144"
             d="m -1710.8438,488.57227 c -54.3187,-0.82077 -129.6681,77.379 -120.8203,129.375 -9.2829,54.55315 74.1148,137.95098 128.668,128.66796 0.012,0.002 0.024,0.004 0.035,0.006 v -0.006 h 503.1171 v -32.13085 h -503.1171 v -2.11719 h 0.2324 c -0.088,-0.0284 -0.18,-0.0487 -0.2676,-0.0781 -33.731,11.34588 -105.6857,-60.6108 -94.3398,-94.34179 -11.346,-33.731 60.6088,-105.68573 94.3398,-94.33985 33.731,-11.34591 105.6877,60.60885 94.3418,94.33985 0.048,0.14185 0.084,0.28844 0.1289,0.43164 v -0.44922 h 0.018 v 94.4375 h 34.2324 v -94.47071 h -0.045 c 9.2234,-54.55412 -74.1393,-137.89735 -128.6758,-128.61718 -2.5572,-0.43514 -5.1762,-0.66667 -7.8477,-0.70703 z m 102.336,600.37693 v 34.2305 h 34.2324 v -34.2305 z"
             transform="scale(0.26458333)"
             id="path5449"
             inkscape:connector-curvature="0" />
        </g>
        <g
           style="fill:#00ff00;stroke:none"
           transform="rotate(90,-403.02872,305.08444)"
           id="g5465">
          <path
             inkscape:connector-curvature="0"
             id="path5453"
             transform="scale(0.26458333)"
             d="m -1702.9961,146 c -262.7766,11.34589 -460.5994,209.17078 -471.9453,471.94727 11.3459,262.77654 209.1688,460.60133 471.9453,471.94723 5.4134,-0.2337 10.7971,-0.5543 16.1543,-0.9453 h -16.1191 v -0.018 h 503.1171 v -34.2304 h -503.1523 v 0.8633 c -241.9543,-9.283 -428.3361,-195.66489 -437.6191,-437.61919 9.2829,-241.95431 195.6648,-428.33603 437.6191,-437.61914 241.9381,9.28239 428.3111,195.6397 437.6172,437.57031 h -0.8125 v 94.47071 h 34.2324 v -94.43946 h 0.018 v 15.42969 c 0.3662,-5.11259 0.6696,-10.24839 0.8926,-15.41211 C -1242.3949,355.17067 -1440.2195,157.34588 -1702.9961,146 Z m 436.8047,942.9492 v 34.2305 h 34.2324 v -34.2305 z"
             style="fill:#00ff00;stroke:none;stroke-width:0.6414144" />
          <path
             inkscape:connector-curvature="0"
             id="path5455"
             transform="scale(0.26458333)"
             d="m -1702.9961,214.65625 c -221.1318,7.22011 -396.0709,182.15929 -403.291,403.29102 7.2201,221.13178 182.1593,396.07093 403.291,403.29103 0.012,-4e-4 0.023,0 0.035,0 v -0.7695 h 503.1171 v -34.23247 h -503.1523 v 0.67578 c -200.3096,-5.15724 -363.8056,-168.65331 -368.9629,-368.96289 5.1572,-200.3096 168.6533,-363.8056 368.9629,-368.96289 200.2921,5.15675 363.7781,168.62457 368.9629,368.91015 h -0.6211 v 94.47071 h 34.2305 v -94.43555 h 0.7187 c -7.2288,-221.1235 -182.1651,-396.05354 -403.291,-403.27344 z m 368.3418,874.29295 v 34.2305 h 34.2305 v -34.2305 z"
             style="fill:#00ff00;stroke:none;stroke-width:0.6414144" />
          <path
             inkscape:connector-curvature="0"
             id="path5457"
             transform="scale(0.26458333)"
             d="m -1702.9961,283.3125 c -179.4875,3.09436 -331.5404,155.14735 -334.6348,334.63477 3.0944,179.48743 155.1474,331.54238 334.6348,334.63671 0.012,-2e-4 0.023,2.1e-4 0.035,0 v -0.57812 h 503.1171 v -34.23242 h -503.1523 v 0.48242 c -158.6648,-1.03143 -299.2752,-141.64378 -300.3066,-300.30859 1.0314,-158.66484 141.6418,-299.27514 300.3066,-300.30665 158.6479,1.03133 299.2475,141.61175 300.3086,300.25586 h -0.4297 v 94.47071 h 34.2305 v -94.4375 h 0.5273 c -3.1039,-179.4798 -155.1551,-331.52295 -334.6367,-334.61719 z m 299.8789,805.6367 v 34.2305 h 34.2305 v -34.2305 z"
             style="fill:#00ff00;stroke:none;stroke-width:0.6414144" />
          <path
             inkscape:connector-curvature="0"
             id="path5459"
             transform="scale(0.26458333)"
             d="m -1702.9961,351.9668 c -137.8427,-1.03143 -267.01,128.13781 -265.9785,265.98047 -1.0314,137.84267 128.1358,267.0119 265.9785,265.98046 0.012,9e-5 0.023,-8e-5 0.035,0 v -0.38476 h 503.1171 v -34.23242 h -503.1523 v 0.28906 c -117.0201,3.09434 -234.7447,-114.6323 -231.6504,-231.65234 -3.0944,-117.02007 114.6303,-234.74665 231.6504,-231.65235 117.0031,-3.09392 234.7114,114.59818 231.6523,231.60156 h -0.2382 v 94.47071 h 34.2324 v -94.4375 h 0.334 c 1.0203,-137.8361 -128.1437,-266.9943 -265.9805,-265.96289 z m 231.4141,736.9824 v 34.2305 h 34.2324 v -34.2305 z"
             style="fill:#00ff00;stroke:none;stroke-width:0.6414144" />
          <path
             inkscape:connector-curvature="0"
             id="path5461"
             transform="scale(0.26458333)"
             d="m -1712.0391,420.46289 c -93.6874,1.63638 -193.2773,104.29263 -188.2812,197.48438 -5.1572,96.19791 101.1263,202.48146 197.3242,197.32421 0.012,6.3e-4 0.024,9.6e-4 0.035,0.002 v -0.19336 h 503.1171 V 780.8477 h -503.1523 v 0.0957 c -75.3758,7.22011 -170.2162,-87.62035 -162.9961,-162.99609 -7.2201,-75.37577 87.6203,-170.21617 162.9961,-162.9961 75.359,-7.21849 170.1748,87.57771 163.002,162.94531 h -0.049 v 94.47071 h 34.2305 v -94.4375 h 0.1406 c 5.1434,-96.19332 -101.1321,-202.46357 -197.3242,-197.30664 -3.0062,-0.16117 -6.0208,-0.21295 -9.043,-0.16016 z m 171.9961,668.48631 v 34.2305 h 34.2305 v -34.2305 z"
             style="fill:#00ff00;stroke:none;stroke-width:0.6414144" />
          <path
             sodipodi:nodetypes="ccccccccccccccccccccccccccccc"
             inkscape:connector-curvature="0"
             id="path5463"
             transform="scale(0.26458333)"
             d="m -1710.8438,488.57227 c -54.3187,-0.82077 -129.6681,77.379 -120.8203,129.375 -9.2829,54.55315 74.1148,137.95098 128.668,128.66796 0.012,0.002 0.024,0.004 0.035,0.006 v -0.006 h 503.1171 v -32.13085 h -503.1171 v -2.11719 h 0.2324 c -0.088,-0.0284 -0.18,-0.0487 -0.2676,-0.0781 -33.731,11.34588 -105.6857,-60.6108 -94.3398,-94.34179 -11.346,-33.731 60.6088,-105.68573 94.3398,-94.33985 33.731,-11.34591 105.6877,60.60885 94.3418,94.33985 0.048,0.14185 0.084,0.28844 0.1289,0.43164 v -0.44922 h 0.018 v 94.4375 h 34.2324 v -94.47071 h -0.045 c 9.2234,-54.55412 -74.1393,-137.89735 -128.6758,-128.61718 -2.5572,-0.43514 -5.1762,-0.66667 -7.8477,-0.70703 z m 104.4356,600.37693 v 34.2305 h 32.1328 v -34.2305 z"
             style="fill:#00ff00;stroke:none;stroke-width:0.6414144" />
        </g>
      </g>
    </g>
    <g
       transform="matrix(0.01459856,0.01459856,-0.01459856,0.01459856,91.268465,86.45879)"
       id="g5603">
      <g
         id="g5571">
        <g
           style="fill:#00ff00;stroke:none"
           transform="translate(-77.660188,94.043662)"
           id="g5555">
          <path
             style="fill:#00ff00;stroke:none;stroke-width:0.6414144"
             d="m -1702.9961,146 c -262.7766,11.34589 -460.5994,209.17078 -471.9453,471.94727 11.3459,262.77654 209.1688,460.60133 471.9453,471.94723 5.4134,-0.2337 10.7971,-0.5543 16.1543,-0.9453 h -16.1191 v -0.018 h 503.1171 v -34.2304 h -503.1523 v 0.8633 c -241.9543,-9.283 -428.3361,-195.66489 -437.6191,-437.61919 9.2829,-241.95431 195.6648,-428.33603 437.6191,-437.61914 241.9381,9.28239 428.3111,195.6397 437.6172,437.57031 h -0.8125 v 94.47071 h 34.2324 v -94.43946 h 0.018 v 15.42969 c 0.3662,-5.11259 0.6696,-10.24839 0.8926,-15.41211 C -1242.3949,355.17067 -1440.2195,157.34588 -1702.9961,146 Z m 436.8047,942.9492 v 34.2305 h 34.2324 v -34.2305 z"
             transform="scale(0.26458333)"
             id="path5543"
             inkscape:connector-curvature="0" />
          <path
             style="fill:#00ff00;stroke:none;stroke-width:0.6414144"
             d="m -1702.9961,214.65625 c -221.1318,7.22011 -396.0709,182.15929 -403.291,403.29102 7.2201,221.13178 182.1593,396.07093 403.291,403.29103 0.012,-4e-4 0.023,0 0.035,0 v -0.7695 h 503.1171 v -34.23247 h -503.1523 v 0.67578 c -200.3096,-5.15724 -363.8056,-168.65331 -368.9629,-368.96289 5.1572,-200.3096 168.6533,-363.8056 368.9629,-368.96289 200.2921,5.15675 363.7781,168.62457 368.9629,368.91015 h -0.6211 v 94.47071 h 34.2305 v -94.43555 h 0.7187 c -7.2288,-221.1235 -182.1651,-396.05354 -403.291,-403.27344 z m 368.3418,874.29295 v 34.2305 h 34.2305 v -34.2305 z"
             transform="scale(0.26458333)"
             id="path5545"
             inkscape:connector-curvature="0" />
          <path
             style="fill:#00ff00;stroke:none;stroke-width:0.6414144"
             d="m -1702.9961,283.3125 c -179.4875,3.09436 -331.5404,155.14735 -334.6348,334.63477 3.0944,179.48743 155.1474,331.54238 334.6348,334.63671 0.012,-2e-4 0.023,2.1e-4 0.035,0 v -0.57812 h 503.1171 v -34.23242 h -503.1523 v 0.48242 c -158.6648,-1.03143 -299.2752,-141.64378 -300.3066,-300.30859 1.0314,-158.66484 141.6418,-299.27514 300.3066,-300.30665 158.6479,1.03133 299.2475,141.61175 300.3086,300.25586 h -0.4297 v 94.47071 h 34.2305 v -94.4375 h 0.5273 c -3.1039,-179.4798 -155.1551,-331.52295 -334.6367,-334.61719 z m 299.8789,805.6367 v 34.2305 h 34.2305 v -34.2305 z"
             transform="scale(0.26458333)"
             id="path5547"
             inkscape:connector-curvature="0" />
          <path
             style="fill:#00ff00;stroke:none;stroke-width:0.6414144"
             d="m -1702.9961,351.9668 c -137.8427,-1.03143 -267.01,128.13781 -265.9785,265.98047 -1.0314,137.84267 128.1358,267.0119 265.9785,265.98046 0.012,9e-5 0.023,-8e-5 0.035,0 v -0.38476 h 503.1171 v -34.23242 h -503.1523 v 0.28906 c -117.0201,3.09434 -234.7447,-114.6323 -231.6504,-231.65234 -3.0944,-117.02007 114.6303,-234.74665 231.6504,-231.65235 117.0031,-3.09392 234.7114,114.59818 231.6523,231.60156 h -0.2382 v 94.47071 h 34.2324 v -94.4375 h 0.334 c 1.0203,-137.8361 -128.1437,-266.9943 -265.9805,-265.96289 z m 231.4141,736.9824 v 34.2305 h 34.2324 v -34.2305 z"
             transform="scale(0.26458333)"
             id="path5549"
             inkscape:connector-curvature="0" />
          <path
             style="fill:#00ff00;stroke:none;stroke-width:0.6414144"
             d="m -1712.0391,420.46289 c -93.6874,1.63638 -193.2773,104.29263 -188.2812,197.48438 -5.1572,96.19791 101.1263,202.48146 197.3242,197.32421 0.012,6.3e-4 0.024,9.6e-4 0.035,0.002 v -0.19336 h 503.1171 V 780.8477 h -503.1523 v 0.0957 c -75.3758,7.22011 -170.2162,-87.62035 -162.9961,-162.99609 -7.2201,-75.37577 87.6203,-170.21617 162.9961,-162.9961 75.359,-7.21849 170.1748,87.57771 163.002,162.94531 h -0.049 v 94.47071 h 34.2305 v -94.4375 h 0.1406 c 5.1434,-96.19332 -101.1321,-202.46357 -197.3242,-197.30664 -3.0062,-0.16117 -6.0208,-0.21295 -9.043,-0.16016 z m 171.9961,668.48631 v 34.2305 h 34.2305 v -34.2305 z"
             transform="scale(0.26458333)"
             id="path5551"
             inkscape:connector-curvature="0" />
          <path
             style="fill:#00ff00;stroke:none;stroke-width:0.6414144"
             d="m -1710.8438,488.57227 c -54.3187,-0.82077 -129.6681,77.379 -120.8203,129.375 -9.2829,54.55315 74.1148,137.95098 128.668,128.66796 0.012,0.002 0.024,0.004 0.035,0.006 v -0.006 h 503.1171 v -32.13085 h -503.1171 v -2.11719 h 0.2324 c -0.088,-0.0284 -0.18,-0.0487 -0.2676,-0.0781 -33.731,11.34588 -105.6857,-60.6108 -94.3398,-94.34179 -11.346,-33.731 60.6088,-105.68573 94.3398,-94.33985 33.731,-11.34591 105.6877,60.60885 94.3418,94.33985 0.048,0.14185 0.084,0.28844 0.1289,0.43164 v -0.44922 h 0.018 v 94.4375 h 34.2324 v -94.47071 h -0.045 c 9.2234,-54.55412 -74.1393,-137.89735 -128.6758,-128.61718 -2.5572,-0.43514 -5.1762,-0.66667 -7.8477,-0.70703 z m 102.336,600.37693 v 34.2305 h 34.2324 v -34.2305 z"
             transform="scale(0.26458333)"
             id="path5553"
             inkscape:connector-curvature="0" />
        </g>
        <g
           style="fill:#00ff00;stroke:none"
           transform="rotate(90,-403.02872,305.08444)"
           id="g5569">
          <path
             inkscape:connector-curvature="0"
             id="path5557"
             transform="scale(0.26458333)"
             d="m -1702.9961,146 c -262.7766,11.34589 -460.5994,209.17078 -471.9453,471.94727 11.3459,262.77654 209.1688,460.60133 471.9453,471.94723 5.4134,-0.2337 10.7971,-0.5543 16.1543,-0.9453 h -16.1191 v -0.018 h 503.1171 v -34.2304 h -503.1523 v 0.8633 c -241.9543,-9.283 -428.3361,-195.66489 -437.6191,-437.61919 9.2829,-241.95431 195.6648,-428.33603 437.6191,-437.61914 241.9381,9.28239 428.3111,195.6397 437.6172,437.57031 h -0.8125 v 94.47071 h 34.2324 v -94.43946 h 0.018 v 15.42969 c 0.3662,-5.11259 0.6696,-10.24839 0.8926,-15.41211 C -1242.3949,355.17067 -1440.2195,157.34588 -1702.9961,146 Z m 436.8047,942.9492 v 34.2305 h 34.2324 v -34.2305 z"
             style="fill:#00ff00;stroke:none;stroke-width:0.6414144" />
          <path
             inkscape:connector-curvature="0"
             id="path5559"
             transform="scale(0.26458333)"
             d="m -1702.9961,214.65625 c -221.1318,7.22011 -396.0709,182.15929 -403.291,403.29102 7.2201,221.13178 182.1593,396.07093 403.291,403.29103 0.012,-4e-4 0.023,0 0.035,0 v -0.7695 h 503.1171 v -34.23247 h -503.1523 v 0.67578 c -200.3096,-5.15724 -363.8056,-168.65331 -368.9629,-368.96289 5.1572,-200.3096 168.6533,-363.8056 368.9629,-368.96289 200.2921,5.15675 363.7781,168.62457 368.9629,368.91015 h -0.6211 v 94.47071 h 34.2305 v -94.43555 h 0.7187 c -7.2288,-221.1235 -182.1651,-396.05354 -403.291,-403.27344 z m 368.3418,874.29295 v 34.2305 h 34.2305 v -34.2305 z"
             style="fill:#00ff00;stroke:none;stroke-width:0.6414144" />
          <path
             inkscape:connector-curvature="0"
             id="path5561"
             transform="scale(0.26458333)"
             d="m -1702.9961,283.3125 c -179.4875,3.09436 -331.5404,155.14735 -334.6348,334.63477 3.0944,179.48743 155.1474,331.54238 334.6348,334.63671 0.012,-2e-4 0.023,2.1e-4 0.035,0 v -0.57812 h 503.1171 v -34.23242 h -503.1523 v 0.48242 c -158.6648,-1.03143 -299.2752,-141.64378 -300.3066,-300.30859 1.0314,-158.66484 141.6418,-299.27514 300.3066,-300.30665 158.6479,1.03133 299.2475,141.61175 300.3086,300.25586 h -0.4297 v 94.47071 h 34.2305 v -94.4375 h 0.5273 c -3.1039,-179.4798 -155.1551,-331.52295 -334.6367,-334.61719 z m 299.8789,805.6367 v 34.2305 h 34.2305 v -34.2305 z"
             style="fill:#00ff00;stroke:none;stroke-width:0.6414144" />
          <path
             inkscape:connector-curvature="0"
             id="path5563"
             transform="scale(0.26458333)"
             d="m -1702.9961,351.9668 c -137.8427,-1.03143 -267.01,128.13781 -265.9785,265.98047 -1.0314,137.84267 128.1358,267.0119 265.9785,265.98046 0.012,9e-5 0.023,-8e-5 0.035,0 v -0.38476 h 503.1171 v -34.23242 h -503.1523 v 0.28906 c -117.0201,3.09434 -234.7447,-114.6323 -231.6504,-231.65234 -3.0944,-117.02007 114.6303,-234.74665 231.6504,-231.65235 117.0031,-3.09392 234.7114,114.59818 231.6523,231.60156 h -0.2382 v 94.47071 h 34.2324 v -94.4375 h 0.334 c 1.0203,-137.8361 -128.1437,-266.9943 -265.9805,-265.96289 z m 231.4141,736.9824 v 34.2305 h 34.2324 v -34.2305 z"
             style="fill:#00ff00;stroke:none;stroke-width:0.6414144" />
          <path
             inkscape:connector-curvature="0"
             id="path5565"
             transform="scale(0.26458333)"
             d="m -1712.0391,420.46289 c -93.6874,1.63638 -193.2773,104.29263 -188.2812,197.48438 -5.1572,96.19791 101.1263,202.48146 197.3242,197.32421 0.012,6.3e-4 0.024,9.6e-4 0.035,0.002 v -0.19336 h 503.1171 V 780.8477 h -503.1523 v 0.0957 c -75.3758,7.22011 -170.2162,-87.62035 -162.9961,-162.99609 -7.2201,-75.37577 87.6203,-170.21617 162.9961,-162.9961 75.359,-7.21849 170.1748,87.57771 163.002,162.94531 h -0.049 v 94.47071 h 34.2305 v -94.4375 h 0.1406 c 5.1434,-96.19332 -101.1321,-202.46357 -197.3242,-197.30664 -3.0062,-0.16117 -6.0208,-0.21295 -9.043,-0.16016 z m 171.9961,668.48631 v 34.2305 h 34.2305 v -34.2305 z"
             style="fill:#00ff00;stroke:none;stroke-width:0.6414144" />
          <path
             sodipodi:nodetypes="ccccccccccccccccccccccccccccc"
             inkscape:connector-curvature="0"
             id="path5567"
             transform="scale(0.26458333)"
             d="m -1710.8438,488.57227 c -54.3187,-0.82077 -129.6681,77.379 -120.8203,129.375 -9.2829,54.55315 74.1148,137.95098 128.668,128.66796 0.012,0.002 0.024,0.004 0.035,0.006 v -0.006 h 503.1171 v -32.13085 h -503.1171 v -2.11719 h 0.2324 c -0.088,-0.0284 -0.18,-0.0487 -0.2676,-0.0781 -33.731,11.34588 -105.6857,-60.6108 -94.3398,-94.34179 -11.346,-33.731 60.6088,-105.68573 94.3398,-94.33985 33.731,-11.34591 105.6877,60.60885 94.3418,94.33985 0.048,0.14185 0.084,0.28844 0.1289,0.43164 v -0.44922 h 0.018 v 94.4375 h 34.2324 v -94.47071 h -0.045 c 9.2234,-54.55412 -74.1393,-137.89735 -128.6758,-128.61718 -2.5572,-0.43514 -5.1762,-0.66667 -7.8477,-0.70703 z m 104.4356,600.37693 v 34.2305 h 32.1328 v -34.2305 z"
             style="fill:#00ff00;stroke:none;stroke-width:0.6414144" />
        </g>
      </g>
      <g
         id="g5601"
         transform="matrix(1,0,0,-1,0,780.84906)">
        <g
           id="g5585"
           transform="translate(-77.660188,94.043662)"
           style="fill:#00ff00;stroke:none">
          <path
             inkscape:connector-curvature="0"
             id="path5573"
             transform="scale(0.26458333)"
             d="m -1702.9961,146 c -262.7766,11.34589 -460.5994,209.17078 -471.9453,471.94727 11.3459,262.77654 209.1688,460.60133 471.9453,471.94723 5.4134,-0.2337 10.7971,-0.5543 16.1543,-0.9453 h -16.1191 v -0.018 h 503.1171 v -34.2304 h -503.1523 v 0.8633 c -241.9543,-9.283 -428.3361,-195.66489 -437.6191,-437.61919 9.2829,-241.95431 195.6648,-428.33603 437.6191,-437.61914 241.9381,9.28239 428.3111,195.6397 437.6172,437.57031 h -0.8125 v 94.47071 h 34.2324 v -94.43946 h 0.018 v 15.42969 c 0.3662,-5.11259 0.6696,-10.24839 0.8926,-15.41211 C -1242.3949,355.17067 -1440.2195,157.34588 -1702.9961,146 Z m 436.8047,942.9492 v 34.2305 h 34.2324 v -34.2305 z"
             style="fill:#00ff00;stroke:none;stroke-width:0.6414144" />
          <path
             inkscape:connector-curvature="0"
             id="path5575"
             transform="scale(0.26458333)"
             d="m -1702.9961,214.65625 c -221.1318,7.22011 -396.0709,182.15929 -403.291,403.29102 7.2201,221.13178 182.1593,396.07093 403.291,403.29103 0.012,-4e-4 0.023,0 0.035,0 v -0.7695 h 503.1171 v -34.23247 h -503.1523 v 0.67578 c -200.3096,-5.15724 -363.8056,-168.65331 -368.9629,-368.96289 5.1572,-200.3096 168.6533,-363.8056 368.9629,-368.96289 200.2921,5.15675 363.7781,168.62457 368.9629,368.91015 h -0.6211 v 94.47071 h 34.2305 v -94.43555 h 0.7187 c -7.2288,-221.1235 -182.1651,-396.05354 -403.291,-403.27344 z m 368.3418,874.29295 v 34.2305 h 34.2305 v -34.2305 z"
             style="fill:#00ff00;stroke:none;stroke-width:0.6414144" />
          <path
             inkscape:connector-curvature="0"
             id="path5577"
             transform="scale(0.26458333)"
             d="m -1702.9961,283.3125 c -179.4875,3.09436 -331.5404,155.14735 -334.6348,334.63477 3.0944,179.48743 155.1474,331.54238 334.6348,334.63671 0.012,-2e-4 0.023,2.1e-4 0.035,0 v -0.57812 h 503.1171 v -34.23242 h -503.1523 v 0.48242 c -158.6648,-1.03143 -299.2752,-141.64378 -300.3066,-300.30859 1.0314,-158.66484 141.6418,-299.27514 300.3066,-300.30665 158.6479,1.03133 299.2475,141.61175 300.3086,300.25586 h -0.4297 v 94.47071 h 34.2305 v -94.4375 h 0.5273 c -3.1039,-179.4798 -155.1551,-331.52295 -334.6367,-334.61719 z m 299.8789,805.6367 v 34.2305 h 34.2305 v -34.2305 z"
             style="fill:#00ff00;stroke:none;stroke-width:0.6414144" />
          <path
             inkscape:connector-curvature="0"
             id="path5579"
             transform="scale(0.26458333)"
             d="m -1702.9961,351.9668 c -137.8427,-1.03143 -267.01,128.13781 -265.9785,265.98047 -1.0314,137.84267 128.1358,267.0119 265.9785,265.98046 0.012,9e-5 0.023,-8e-5 0.035,0 v -0.38476 h 503.1171 v -34.23242 h -503.1523 v 0.28906 c -117.0201,3.09434 -234.7447,-114.6323 -231.6504,-231.65234 -3.0944,-117.02007 114.6303,-234.74665 231.6504,-231.65235 117.0031,-3.09392 234.7114,114.59818 231.6523,231.60156 h -0.2382 v 94.47071 h 34.2324 v -94.4375 h 0.334 c 1.0203,-137.8361 -128.1437,-266.9943 -265.9805,-265.96289 z m 231.4141,736.9824 v 34.2305 h 34.2324 v -34.2305 z"
             style="fill:#00ff00;stroke:none;stroke-width:0.6414144" />
          <path
             inkscape:connector-curvature="0"
             id="path5581"
             transform="scale(0.26458333)"
             d="m -1712.0391,420.46289 c -93.6874,1.63638 -193.2773,104.29263 -188.2812,197.48438 -5.1572,96.19791 101.1263,202.48146 197.3242,197.32421 0.012,6.3e-4 0.024,9.6e-4 0.035,0.002 v -0.19336 h 503.1171 V 780.8477 h -503.1523 v 0.0957 c -75.3758,7.22011 -170.2162,-87.62035 -162.9961,-162.99609 -7.2201,-75.37577 87.6203,-170.21617 162.9961,-162.9961 75.359,-7.21849 170.1748,87.57771 163.002,162.94531 h -0.049 v 94.47071 h 34.2305 v -94.4375 h 0.1406 c 5.1434,-96.19332 -101.1321,-202.46357 -197.3242,-197.30664 -3.0062,-0.16117 -6.0208,-0.21295 -9.043,-0.16016 z m 171.9961,668.48631 v 34.2305 h 34.2305 v -34.2305 z"
             style="fill:#00ff00;stroke:none;stroke-width:0.6414144" />
          <path
             inkscape:connector-curvature="0"
             id="path5583"
             transform="scale(0.26458333)"
             d="m -1710.8438,488.57227 c -54.3187,-0.82077 -129.6681,77.379 -120.8203,129.375 -9.2829,54.55315 74.1148,137.95098 128.668,128.66796 0.012,0.002 0.024,0.004 0.035,0.006 v -0.006 h 503.1171 v -32.13085 h -503.1171 v -2.11719 h 0.2324 c -0.088,-0.0284 -0.18,-0.0487 -0.2676,-0.0781 -33.731,11.34588 -105.6857,-60.6108 -94.3398,-94.34179 -11.346,-33.731 60.6088,-105.68573 94.3398,-94.33985 33.731,-11.34591 105.6877,60.60885 94.3418,94.33985 0.048,0.14185 0.084,0.28844 0.1289,0.43164 v -0.44922 h 0.018 v 94.4375 h 34.2324 v -94.47071 h -0.045 c 9.2234,-54.55412 -74.1393,-137.89735 -128.6758,-128.61718 -2.5572,-0.43514 -5.1762,-0.66667 -7.8477,-0.70703 z m 102.336,600.37693 v 34.2305 h 34.2324 v -34.2305 z"
             style="fill:#00ff00;stroke:none;stroke-width:0.6414144" />
        </g>
        <g
           id="g5599"
           transform="rotate(90,-403.02872,305.08444)"
           style="fill:#00ff00;stroke:none">
          <path
             style="fill:#00ff00;stroke:none;stroke-width:0.6414144"
             d="m -1702.9961,146 c -262.7766,11.34589 -460.5994,209.17078 -471.9453,471.94727 11.3459,262.77654 209.1688,460.60133 471.9453,471.94723 5.4134,-0.2337 10.7971,-0.5543 16.1543,-0.9453 h -16.1191 v -0.018 h 503.1171 v -34.2304 h -503.1523 v 0.8633 c -241.9543,-9.283 -428.3361,-195.66489 -437.6191,-437.61919 9.2829,-241.95431 195.6648,-428.33603 437.6191,-437.61914 241.9381,9.28239 428.3111,195.6397 437.6172,437.57031 h -0.8125 v 94.47071 h 34.2324 v -94.43946 h 0.018 v 15.42969 c 0.3662,-5.11259 0.6696,-10.24839 0.8926,-15.41211 C -1242.3949,355.17067 -1440.2195,157.34588 -1702.9961,146 Z m 436.8047,942.9492 v 34.2305 h 34.2324 v -34.2305 z"
             transform="scale(0.26458333)"
             id="path5587"
             inkscape:connector-curvature="0" />
          <path
             style="fill:#00ff00;stroke:none;stroke-width:0.6414144"
             d="m -1702.9961,214.65625 c -221.1318,7.22011 -396.0709,182.15929 -403.291,403.29102 7.2201,221.13178 182.1593,396.07093 403.291,403.29103 0.012,-4e-4 0.023,0 0.035,0 v -0.7695 h 503.1171 v -34.23247 h -503.1523 v 0.67578 c -200.3096,-5.15724 -363.8056,-168.65331 -368.9629,-368.96289 5.1572,-200.3096 168.6533,-363.8056 368.9629,-368.96289 200.2921,5.15675 363.7781,168.62457 368.9629,368.91015 h -0.6211 v 94.47071 h 34.2305 v -94.43555 h 0.7187 c -7.2288,-221.1235 -182.1651,-396.05354 -403.291,-403.27344 z m 368.3418,874.29295 v 34.2305 h 34.2305 v -34.2305 z"
             transform="scale(0.26458333)"
             id="path5589"
             inkscape:connector-curvature="0" />
          <path
             style="fill:#00ff00;stroke:none;stroke-width:0.6414144"
             d="m -1702.9961,283.3125 c -179.4875,3.09436 -331.5404,155.14735 -334.6348,334.63477 3.0944,179.48743 155.1474,331.54238 334.6348,334.63671 0.012,-2e-4 0.023,2.1e-4 0.035,0 v -0.57812 h 503.1171 v -34.23242 h -503.1523 v 0.48242 c -158.6648,-1.03143 -299.2752,-141.64378 -300.3066,-300.30859 1.0314,-158.66484 141.6418,-299.27514 300.3066,-300.30665 158.6479,1.03133 299.2475,141.61175 300.3086,300.25586 h -0.4297 v 94.47071 h 34.2305 v -94.4375 h 0.5273 c -3.1039,-179.4798 -155.1551,-331.52295 -334.6367,-334.61719 z m 299.8789,805.6367 v 34.2305 h 34.2305 v -34.2305 z"
             transform="scale(0.26458333)"
             id="path5591"
             inkscape:connector-curvature="0" />
          <path
             style="fill:#00ff00;stroke:none;stroke-width:0.6414144"
             d="m -1702.9961,351.9668 c -137.8427,-1.03143 -267.01,128.13781 -265.9785,265.98047 -1.0314,137.84267 128.1358,267.0119 265.9785,265.98046 0.012,9e-5 0.023,-8e-5 0.035,0 v -0.38476 h 503.1171 v -34.23242 h -503.1523 v 0.28906 c -117.0201,3.09434 -234.7447,-114.6323 -231.6504,-231.65234 -3.0944,-117.02007 114.6303,-234.74665 231.6504,-231.65235 117.0031,-3.09392 234.7114,114.59818 231.6523,231.60156 h -0.2382 v 94.47071 h 34.2324 v -94.4375 h 0.334 c 1.0203,-137.8361 -128.1437,-266.9943 -265.9805,-265.96289 z m 231.4141,736.9824 v 34.2305 h 34.2324 v -34.2305 z"
             transform="scale(0.26458333)"
             id="path5593"
             inkscape:connector-curvature="0" />
          <path
             style="fill:#00ff00;stroke:none;stroke-width:0.6414144"
             d="m -1712.0391,420.46289 c -93.6874,1.63638 -193.2773,104.29263 -188.2812,197.48438 -5.1572,96.19791 101.1263,202.48146 197.3242,197.32421 0.012,6.3e-4 0.024,9.6e-4 0.035,0.002 v -0.19336 h 503.1171 V 780.8477 h -503.1523 v 0.0957 c -75.3758,7.22011 -170.2162,-87.62035 -162.9961,-162.99609 -7.2201,-75.37577 87.6203,-170.21617 162.9961,-162.9961 75.359,-7.21849 170.1748,87.57771 163.002,162.94531 h -0.049 v 94.47071 h 34.2305 v -94.4375 h 0.1406 c 5.1434,-96.19332 -101.1321,-202.46357 -197.3242,-197.30664 -3.0062,-0.16117 -6.0208,-0.21295 -9.043,-0.16016 z m 171.9961,668.48631 v 34.2305 h 34.2305 v -34.2305 z"
             transform="scale(0.26458333)"
             id="path5595"
             inkscape:connector-curvature="0" />
          <path
             style="fill:#00ff00;stroke:none;stroke-width:0.6414144"
             d="m -1710.8438,488.57227 c -54.3187,-0.82077 -129.6681,77.379 -120.8203,129.375 -9.2829,54.55315 74.1148,137.95098 128.668,128.66796 0.012,0.002 0.024,0.004 0.035,0.006 v -0.006 h 503.1171 v -32.13085 h -503.1171 v -2.11719 h 0.2324 c -0.088,-0.0284 -0.18,-0.0487 -0.2676,-0.0781 -33.731,11.34588 -105.6857,-60.6108 -94.3398,-94.34179 -11.346,-33.731 60.6088,-105.68573 94.3398,-94.33985 33.731,-11.34591 105.6877,60.60885 94.3418,94.33985 0.048,0.14185 0.084,0.28844 0.1289,0.43164 v -0.44922 h 0.018 v 94.4375 h 34.2324 v -94.47071 h -0.045 c 9.2234,-54.55412 -74.1393,-137.89735 -128.6758,-128.61718 -2.5572,-0.43514 -5.1762,-0.66667 -7.8477,-0.70703 z m 104.4356,600.37693 v 34.2305 h 32.1328 v -34.2305 z"
             transform="scale(0.26458333)"
             id="path5597"
             inkscape:connector-curvature="0"
             sodipodi:nodetypes="ccccccccccccccccccccccccccccc" />
        </g>
      </g>
    </g>
    <g
       id="g5665"
       transform="matrix(0.01459856,0.01459856,-0.01459856,0.01459856,27.351022,86.527741)">
      <g
         id="g5633">
        <g
           id="g5617"
           transform="translate(-77.660188,94.043662)"
           style="fill:#00ff00;stroke:none">
          <path
             inkscape:connector-curvature="0"
             id="path5605"
             transform="scale(0.26458333)"
             d="m -1702.9961,146 c -262.7766,11.34589 -460.5994,209.17078 -471.9453,471.94727 11.3459,262.77654 209.1688,460.60133 471.9453,471.94723 5.4134,-0.2337 10.7971,-0.5543 16.1543,-0.9453 h -16.1191 v -0.018 h 503.1171 v -34.2304 h -503.1523 v 0.8633 c -241.9543,-9.283 -428.3361,-195.66489 -437.6191,-437.61919 9.2829,-241.95431 195.6648,-428.33603 437.6191,-437.61914 241.9381,9.28239 428.3111,195.6397 437.6172,437.57031 h -0.8125 v 94.47071 h 34.2324 v -94.43946 h 0.018 v 15.42969 c 0.3662,-5.11259 0.6696,-10.24839 0.8926,-15.41211 C -1242.3949,355.17067 -1440.2195,157.34588 -1702.9961,146 Z m 436.8047,942.9492 v 34.2305 h 34.2324 v -34.2305 z"
             style="fill:#00ff00;stroke:none;stroke-width:0.6414144" />
          <path
             inkscape:connector-curvature="0"
             id="path5607"
             transform="scale(0.26458333)"
             d="m -1702.9961,214.65625 c -221.1318,7.22011 -396.0709,182.15929 -403.291,403.29102 7.2201,221.13178 182.1593,396.07093 403.291,403.29103 0.012,-4e-4 0.023,0 0.035,0 v -0.7695 h 503.1171 v -34.23247 h -503.1523 v 0.67578 c -200.3096,-5.15724 -363.8056,-168.65331 -368.9629,-368.96289 5.1572,-200.3096 168.6533,-363.8056 368.9629,-368.96289 200.2921,5.15675 363.7781,168.62457 368.9629,368.91015 h -0.6211 v 94.47071 h 34.2305 v -94.43555 h 0.7187 c -7.2288,-221.1235 -182.1651,-396.05354 -403.291,-403.27344 z m 368.3418,874.29295 v 34.2305 h 34.2305 v -34.2305 z"
             style="fill:#00ff00;stroke:none;stroke-width:0.6414144" />
          <path
             inkscape:connector-curvature="0"
             id="path5609"
             transform="scale(0.26458333)"
             d="m -1702.9961,283.3125 c -179.4875,3.09436 -331.5404,155.14735 -334.6348,334.63477 3.0944,179.48743 155.1474,331.54238 334.6348,334.63671 0.012,-2e-4 0.023,2.1e-4 0.035,0 v -0.57812 h 503.1171 v -34.23242 h -503.1523 v 0.48242 c -158.6648,-1.03143 -299.2752,-141.64378 -300.3066,-300.30859 1.0314,-158.66484 141.6418,-299.27514 300.3066,-300.30665 158.6479,1.03133 299.2475,141.61175 300.3086,300.25586 h -0.4297 v 94.47071 h 34.2305 v -94.4375 h 0.5273 c -3.1039,-179.4798 -155.1551,-331.52295 -334.6367,-334.61719 z m 299.8789,805.6367 v 34.2305 h 34.2305 v -34.2305 z"
             style="fill:#00ff00;stroke:none;stroke-width:0.6414144" />
          <path
             inkscape:connector-curvature="0"
             id="path5611"
             transform="scale(0.26458333)"
             d="m -1702.9961,351.9668 c -137.8427,-1.03143 -267.01,128.13781 -265.9785,265.98047 -1.0314,137.84267 128.1358,267.0119 265.9785,265.98046 0.012,9e-5 0.023,-8e-5 0.035,0 v -0.38476 h 503.1171 v -34.23242 h -503.1523 v 0.28906 c -117.0201,3.09434 -234.7447,-114.6323 -231.6504,-231.65234 -3.0944,-117.02007 114.6303,-234.74665 231.6504,-231.65235 117.0031,-3.09392 234.7114,114.59818 231.6523,231.60156 h -0.2382 v 94.47071 h 34.2324 v -94.4375 h 0.334 c 1.0203,-137.8361 -128.1437,-266.9943 -265.9805,-265.96289 z m 231.4141,736.9824 v 34.2305 h 34.2324 v -34.2305 z"
             style="fill:#00ff00;stroke:none;stroke-width:0.6414144" />
          <path
             inkscape:connector-curvature="0"
             id="path5613"
             transform="scale(0.26458333)"
             d="m -1712.0391,420.46289 c -93.6874,1.63638 -193.2773,104.29263 -188.2812,197.48438 -5.1572,96.19791 101.1263,202.48146 197.3242,197.32421 0.012,6.3e-4 0.024,9.6e-4 0.035,0.002 v -0.19336 h 503.1171 V 780.8477 h -503.1523 v 0.0957 c -75.3758,7.22011 -170.2162,-87.62035 -162.9961,-162.99609 -7.2201,-75.37577 87.6203,-170.21617 162.9961,-162.9961 75.359,-7.21849 170.1748,87.57771 163.002,162.94531 h -0.049 v 94.47071 h 34.2305 v -94.4375 h 0.1406 c 5.1434,-96.19332 -101.1321,-202.46357 -197.3242,-197.30664 -3.0062,-0.16117 -6.0208,-0.21295 -9.043,-0.16016 z m 171.9961,668.48631 v 34.2305 h 34.2305 v -34.2305 z"
             style="fill:#00ff00;stroke:none;stroke-width:0.6414144" />
          <path
             inkscape:connector-curvature="0"
             id="path5615"
             transform="scale(0.26458333)"
             d="m -1710.8438,488.57227 c -54.3187,-0.82077 -129.6681,77.379 -120.8203,129.375 -9.2829,54.55315 74.1148,137.95098 128.668,128.66796 0.012,0.002 0.024,0.004 0.035,0.006 v -0.006 h 503.1171 v -32.13085 h -503.1171 v -2.11719 h 0.2324 c -0.088,-0.0284 -0.18,-0.0487 -0.2676,-0.0781 -33.731,11.34588 -105.6857,-60.6108 -94.3398,-94.34179 -11.346,-33.731 60.6088,-105.68573 94.3398,-94.33985 33.731,-11.34591 105.6877,60.60885 94.3418,94.33985 0.048,0.14185 0.084,0.28844 0.1289,0.43164 v -0.44922 h 0.018 v 94.4375 h 34.2324 v -94.47071 h -0.045 c 9.2234,-54.55412 -74.1393,-137.89735 -128.6758,-128.61718 -2.5572,-0.43514 -5.1762,-0.66667 -7.8477,-0.70703 z m 102.336,600.37693 v 34.2305 h 34.2324 v -34.2305 z"
             style="fill:#00ff00;stroke:none;stroke-width:0.6414144" />
        </g>
        <g
           id="g5631"
           transform="rotate(90,-403.02872,305.08444)"
           style="fill:#00ff00;stroke:none">
          <path
             style="fill:#00ff00;stroke:none;stroke-width:0.6414144"
             d="m -1702.9961,146 c -262.7766,11.34589 -460.5994,209.17078 -471.9453,471.94727 11.3459,262.77654 209.1688,460.60133 471.9453,471.94723 5.4134,-0.2337 10.7971,-0.5543 16.1543,-0.9453 h -16.1191 v -0.018 h 503.1171 v -34.2304 h -503.1523 v 0.8633 c -241.9543,-9.283 -428.3361,-195.66489 -437.6191,-437.61919 9.2829,-241.95431 195.6648,-428.33603 437.6191,-437.61914 241.9381,9.28239 428.3111,195.6397 437.6172,437.57031 h -0.8125 v 94.47071 h 34.2324 v -94.43946 h 0.018 v 15.42969 c 0.3662,-5.11259 0.6696,-10.24839 0.8926,-15.41211 C -1242.3949,355.17067 -1440.2195,157.34588 -1702.9961,146 Z m 436.8047,942.9492 v 34.2305 h 34.2324 v -34.2305 z"
             transform="scale(0.26458333)"
             id="path5619"
             inkscape:connector-curvature="0" />
          <path
             style="fill:#00ff00;stroke:none;stroke-width:0.6414144"
             d="m -1702.9961,214.65625 c -221.1318,7.22011 -396.0709,182.15929 -403.291,403.29102 7.2201,221.13178 182.1593,396.07093 403.291,403.29103 0.012,-4e-4 0.023,0 0.035,0 v -0.7695 h 503.1171 v -34.23247 h -503.1523 v 0.67578 c -200.3096,-5.15724 -363.8056,-168.65331 -368.9629,-368.96289 5.1572,-200.3096 168.6533,-363.8056 368.9629,-368.96289 200.2921,5.15675 363.7781,168.62457 368.9629,368.91015 h -0.6211 v 94.47071 h 34.2305 v -94.43555 h 0.7187 c -7.2288,-221.1235 -182.1651,-396.05354 -403.291,-403.27344 z m 368.3418,874.29295 v 34.2305 h 34.2305 v -34.2305 z"
             transform="scale(0.26458333)"
             id="path5621"
             inkscape:connector-curvature="0" />
          <path
             style="fill:#00ff00;stroke:none;stroke-width:0.6414144"
             d="m -1702.9961,283.3125 c -179.4875,3.09436 -331.5404,155.14735 -334.6348,334.63477 3.0944,179.48743 155.1474,331.54238 334.6348,334.63671 0.012,-2e-4 0.023,2.1e-4 0.035,0 v -0.57812 h 503.1171 v -34.23242 h -503.1523 v 0.48242 c -158.6648,-1.03143 -299.2752,-141.64378 -300.3066,-300.30859 1.0314,-158.66484 141.6418,-299.27514 300.3066,-300.30665 158.6479,1.03133 299.2475,141.61175 300.3086,300.25586 h -0.4297 v 94.47071 h 34.2305 v -94.4375 h 0.5273 c -3.1039,-179.4798 -155.1551,-331.52295 -334.6367,-334.61719 z m 299.8789,805.6367 v 34.2305 h 34.2305 v -34.2305 z"
             transform="scale(0.26458333)"
             id="path5623"
             inkscape:connector-curvature="0" />
          <path
             style="fill:#00ff00;stroke:none;stroke-width:0.6414144"
             d="m -1702.9961,351.9668 c -137.8427,-1.03143 -267.01,128.13781 -265.9785,265.98047 -1.0314,137.84267 128.1358,267.0119 265.9785,265.98046 0.012,9e-5 0.023,-8e-5 0.035,0 v -0.38476 h 503.1171 v -34.23242 h -503.1523 v 0.28906 c -117.0201,3.09434 -234.7447,-114.6323 -231.6504,-231.65234 -3.0944,-117.02007 114.6303,-234.74665 231.6504,-231.65235 117.0031,-3.09392 234.7114,114.59818 231.6523,231.60156 h -0.2382 v 94.47071 h 34.2324 v -94.4375 h 0.334 c 1.0203,-137.8361 -128.1437,-266.9943 -265.9805,-265.96289 z m 231.4141,736.9824 v 34.2305 h 34.2324 v -34.2305 z"
             transform="scale(0.26458333)"
             id="path5625"
             inkscape:connector-curvature="0" />
          <path
             style="fill:#00ff00;stroke:none;stroke-width:0.6414144"
             d="m -1712.0391,420.46289 c -93.6874,1.63638 -193.2773,104.29263 -188.2812,197.48438 -5.1572,96.19791 101.1263,202.48146 197.3242,197.32421 0.012,6.3e-4 0.024,9.6e-4 0.035,0.002 v -0.19336 h 503.1171 V 780.8477 h -503.1523 v 0.0957 c -75.3758,7.22011 -170.2162,-87.62035 -162.9961,-162.99609 -7.2201,-75.37577 87.6203,-170.21617 162.9961,-162.9961 75.359,-7.21849 170.1748,87.57771 163.002,162.94531 h -0.049 v 94.47071 h 34.2305 v -94.4375 h 0.1406 c 5.1434,-96.19332 -101.1321,-202.46357 -197.3242,-197.30664 -3.0062,-0.16117 -6.0208,-0.21295 -9.043,-0.16016 z m 171.9961,668.48631 v 34.2305 h 34.2305 v -34.2305 z"
             transform="scale(0.26458333)"
             id="path5627"
             inkscape:connector-curvature="0" />
          <path
             style="fill:#00ff00;stroke:none;stroke-width:0.6414144"
             d="m -1710.8438,488.57227 c -54.3187,-0.82077 -129.6681,77.379 -120.8203,129.375 -9.2829,54.55315 74.1148,137.95098 128.668,128.66796 0.012,0.002 0.024,0.004 0.035,0.006 v -0.006 h 503.1171 v -32.13085 h -503.1171 v -2.11719 h 0.2324 c -0.088,-0.0284 -0.18,-0.0487 -0.2676,-0.0781 -33.731,11.34588 -105.6857,-60.6108 -94.3398,-94.34179 -11.346,-33.731 60.6088,-105.68573 94.3398,-94.33985 33.731,-11.34591 105.6877,60.60885 94.3418,94.33985 0.048,0.14185 0.084,0.28844 0.1289,0.43164 v -0.44922 h 0.018 v 94.4375 h 34.2324 v -94.47071 h -0.045 c 9.2234,-54.55412 -74.1393,-137.89735 -128.6758,-128.61718 -2.5572,-0.43514 -5.1762,-0.66667 -7.8477,-0.70703 z m 104.4356,600.37693 v 34.2305 h 32.1328 v -34.2305 z"
             transform="scale(0.26458333)"
             id="path5629"
             inkscape:connector-curvature="0"
             sodipodi:nodetypes="ccccccccccccccccccccccccccccc" />
        </g>
      </g>
      <g
         transform="matrix(1,0,0,-1,0,780.84906)"
         id="g5663">
        <g
           style="fill:#00ff00;stroke:none"
           transform="translate(-77.660188,94.043662)"
           id="g5647">
          <path
             style="fill:#00ff00;stroke:none;stroke-width:0.6414144"
             d="m -1702.9961,146 c -262.7766,11.34589 -460.5994,209.17078 -471.9453,471.94727 11.3459,262.77654 209.1688,460.60133 471.9453,471.94723 5.4134,-0.2337 10.7971,-0.5543 16.1543,-0.9453 h -16.1191 v -0.018 h 503.1171 v -34.2304 h -503.1523 v 0.8633 c -241.9543,-9.283 -428.3361,-195.66489 -437.6191,-437.61919 9.2829,-241.95431 195.6648,-428.33603 437.6191,-437.61914 241.9381,9.28239 428.3111,195.6397 437.6172,437.57031 h -0.8125 v 94.47071 h 34.2324 v -94.43946 h 0.018 v 15.42969 c 0.3662,-5.11259 0.6696,-10.24839 0.8926,-15.41211 C -1242.3949,355.17067 -1440.2195,157.34588 -1702.9961,146 Z m 436.8047,942.9492 v 34.2305 h 34.2324 v -34.2305 z"
             transform="scale(0.26458333)"
             id="path5635"
             inkscape:connector-curvature="0" />
          <path
             style="fill:#00ff00;stroke:none;stroke-width:0.6414144"
             d="m -1702.9961,214.65625 c -221.1318,7.22011 -396.0709,182.15929 -403.291,403.29102 7.2201,221.13178 182.1593,396.07093 403.291,403.29103 0.012,-4e-4 0.023,0 0.035,0 v -0.7695 h 503.1171 v -34.23247 h -503.1523 v 0.67578 c -200.3096,-5.15724 -363.8056,-168.65331 -368.9629,-368.96289 5.1572,-200.3096 168.6533,-363.8056 368.9629,-368.96289 200.2921,5.15675 363.7781,168.62457 368.9629,368.91015 h -0.6211 v 94.47071 h 34.2305 v -94.43555 h 0.7187 c -7.2288,-221.1235 -182.1651,-396.05354 -403.291,-403.27344 z m 368.3418,874.29295 v 34.2305 h 34.2305 v -34.2305 z"
             transform="scale(0.26458333)"
             id="path5637"
             inkscape:connector-curvature="0" />
          <path
             style="fill:#00ff00;stroke:none;stroke-width:0.6414144"
             d="m -1702.9961,283.3125 c -179.4875,3.09436 -331.5404,155.14735 -334.6348,334.63477 3.0944,179.48743 155.1474,331.54238 334.6348,334.63671 0.012,-2e-4 0.023,2.1e-4 0.035,0 v -0.57812 h 503.1171 v -34.23242 h -503.1523 v 0.48242 c -158.6648,-1.03143 -299.2752,-141.64378 -300.3066,-300.30859 1.0314,-158.66484 141.6418,-299.27514 300.3066,-300.30665 158.6479,1.03133 299.2475,141.61175 300.3086,300.25586 h -0.4297 v 94.47071 h 34.2305 v -94.4375 h 0.5273 c -3.1039,-179.4798 -155.1551,-331.52295 -334.6367,-334.61719 z m 299.8789,805.6367 v 34.2305 h 34.2305 v -34.2305 z"
             transform="scale(0.26458333)"
             id="path5639"
             inkscape:connector-curvature="0" />
          <path
             style="fill:#00ff00;stroke:none;stroke-width:0.6414144"
             d="m -1702.9961,351.9668 c -137.8427,-1.03143 -267.01,128.13781 -265.9785,265.98047 -1.0314,137.84267 128.1358,267.0119 265.9785,265.98046 0.012,9e-5 0.023,-8e-5 0.035,0 v -0.38476 h 503.1171 v -34.23242 h -503.1523 v 0.28906 c -117.0201,3.09434 -234.7447,-114.6323 -231.6504,-231.65234 -3.0944,-117.02007 114.6303,-234.74665 231.6504,-231.65235 117.0031,-3.09392 234.7114,114.59818 231.6523,231.60156 h -0.2382 v 94.47071 h 34.2324 v -94.4375 h 0.334 c 1.0203,-137.8361 -128.1437,-266.9943 -265.9805,-265.96289 z m 231.4141,736.9824 v 34.2305 h 34.2324 v -34.2305 z"
             transform="scale(0.26458333)"
             id="path5641"
             inkscape:connector-curvature="0" />
          <path
             style="fill:#00ff00;stroke:none;stroke-width:0.6414144"
             d="m -1712.0391,420.46289 c -93.6874,1.63638 -193.2773,104.29263 -188.2812,197.48438 -5.1572,96.19791 101.1263,202.48146 197.3242,197.32421 0.012,6.3e-4 0.024,9.6e-4 0.035,0.002 v -0.19336 h 503.1171 V 780.8477 h -503.1523 v 0.0957 c -75.3758,7.22011 -170.2162,-87.62035 -162.9961,-162.99609 -7.2201,-75.37577 87.6203,-170.21617 162.9961,-162.9961 75.359,-7.21849 170.1748,87.57771 163.002,162.94531 h -0.049 v 94.47071 h 34.2305 v -94.4375 h 0.1406 c 5.1434,-96.19332 -101.1321,-202.46357 -197.3242,-197.30664 -3.0062,-0.16117 -6.0208,-0.21295 -9.043,-0.16016 z m 171.9961,668.48631 v 34.2305 h 34.2305 v -34.2305 z"
             transform="scale(0.26458333)"
             id="path5643"
             inkscape:connector-curvature="0" />
          <path
             style="fill:#00ff00;stroke:none;stroke-width:0.6414144"
             d="m -1710.8438,488.57227 c -54.3187,-0.82077 -129.6681,77.379 -120.8203,129.375 -9.2829,54.55315 74.1148,137.95098 128.668,128.66796 0.012,0.002 0.024,0.004 0.035,0.006 v -0.006 h 503.1171 v -32.13085 h -503.1171 v -2.11719 h 0.2324 c -0.088,-0.0284 -0.18,-0.0487 -0.2676,-0.0781 -33.731,11.34588 -105.6857,-60.6108 -94.3398,-94.34179 -11.346,-33.731 60.6088,-105.68573 94.3398,-94.33985 33.731,-11.34591 105.6877,60.60885 94.3418,94.33985 0.048,0.14185 0.084,0.28844 0.1289,0.43164 v -0.44922 h 0.018 v 94.4375 h 34.2324 v -94.47071 h -0.045 c 9.2234,-54.55412 -74.1393,-137.89735 -128.6758,-128.61718 -2.5572,-0.43514 -5.1762,-0.66667 -7.8477,-0.70703 z m 102.336,600.37693 v 34.2305 h 34.2324 v -34.2305 z"
             transform="scale(0.26458333)"
             id="path5645"
             inkscape:connector-curvature="0" />
        </g>
        <g
           style="fill:#00ff00;stroke:none"
           transform="rotate(90,-403.02872,305.08444)"
           id="g5661">
          <path
             inkscape:connector-curvature="0"
             id="path5649"
             transform="scale(0.26458333)"
             d="m -1702.9961,146 c -262.7766,11.34589 -460.5994,209.17078 -471.9453,471.94727 11.3459,262.77654 209.1688,460.60133 471.9453,471.94723 5.4134,-0.2337 10.7971,-0.5543 16.1543,-0.9453 h -16.1191 v -0.018 h 503.1171 v -34.2304 h -503.1523 v 0.8633 c -241.9543,-9.283 -428.3361,-195.66489 -437.6191,-437.61919 9.2829,-241.95431 195.6648,-428.33603 437.6191,-437.61914 241.9381,9.28239 428.3111,195.6397 437.6172,437.57031 h -0.8125 v 94.47071 h 34.2324 v -94.43946 h 0.018 v 15.42969 c 0.3662,-5.11259 0.6696,-10.24839 0.8926,-15.41211 C -1242.3949,355.17067 -1440.2195,157.34588 -1702.9961,146 Z m 436.8047,942.9492 v 34.2305 h 34.2324 v -34.2305 z"
             style="fill:#00ff00;stroke:none;stroke-width:0.6414144" />
          <path
             inkscape:connector-curvature="0"
             id="path5651"
             transform="scale(0.26458333)"
             d="m -1702.9961,214.65625 c -221.1318,7.22011 -396.0709,182.15929 -403.291,403.29102 7.2201,221.13178 182.1593,396.07093 403.291,403.29103 0.012,-4e-4 0.023,0 0.035,0 v -0.7695 h 503.1171 v -34.23247 h -503.1523 v 0.67578 c -200.3096,-5.15724 -363.8056,-168.65331 -368.9629,-368.96289 5.1572,-200.3096 168.6533,-363.8056 368.9629,-368.96289 200.2921,5.15675 363.7781,168.62457 368.9629,368.91015 h -0.6211 v 94.47071 h 34.2305 v -94.43555 h 0.7187 c -7.2288,-221.1235 -182.1651,-396.05354 -403.291,-403.27344 z m 368.3418,874.29295 v 34.2305 h 34.2305 v -34.2305 z"
             style="fill:#00ff00;stroke:none;stroke-width:0.6414144" />
          <path
             inkscape:connector-curvature="0"
             id="path5653"
             transform="scale(0.26458333)"
             d="m -1702.9961,283.3125 c -179.4875,3.09436 -331.5404,155.14735 -334.6348,334.63477 3.0944,179.48743 155.1474,331.54238 334.6348,334.63671 0.012,-2e-4 0.023,2.1e-4 0.035,0 v -0.57812 h 503.1171 v -34.23242 h -503.1523 v 0.48242 c -158.6648,-1.03143 -299.2752,-141.64378 -300.3066,-300.30859 1.0314,-158.66484 141.6418,-299.27514 300.3066,-300.30665 158.6479,1.03133 299.2475,141.61175 300.3086,300.25586 h -0.4297 v 94.47071 h 34.2305 v -94.4375 h 0.5273 c -3.1039,-179.4798 -155.1551,-331.52295 -334.6367,-334.61719 z m 299.8789,805.6367 v 34.2305 h 34.2305 v -34.2305 z"
             style="fill:#00ff00;stroke:none;stroke-width:0.6414144" />
          <path
             inkscape:connector-curvature="0"
             id="path5655"
             transform="scale(0.26458333)"
             d="m -1702.9961,351.9668 c -137.8427,-1.03143 -267.01,128.13781 -265.9785,265.98047 -1.0314,137.84267 128.1358,267.0119 265.9785,265.98046 0.012,9e-5 0.023,-8e-5 0.035,0 v -0.38476 h 503.1171 v -34.23242 h -503.1523 v 0.28906 c -117.0201,3.09434 -234.7447,-114.6323 -231.6504,-231.65234 -3.0944,-117.02007 114.6303,-234.74665 231.6504,-231.65235 117.0031,-3.09392 234.7114,114.59818 231.6523,231.60156 h -0.2382 v 94.47071 h 34.2324 v -94.4375 h 0.334 c 1.0203,-137.8361 -128.1437,-266.9943 -265.9805,-265.96289 z m 231.4141,736.9824 v 34.2305 h 34.2324 v -34.2305 z"
             style="fill:#00ff00;stroke:none;stroke-width:0.6414144" />
          <path
             inkscape:connector-curvature="0"
             id="path5657"
             transform="scale(0.26458333)"
             d="m -1712.0391,420.46289 c -93.6874,1.63638 -193.2773,104.29263 -188.2812,197.48438 -5.1572,96.19791 101.1263,202.48146 197.3242,197.32421 0.012,6.3e-4 0.024,9.6e-4 0.035,0.002 v -0.19336 h 503.1171 V 780.8477 h -503.1523 v 0.0957 c -75.3758,7.22011 -170.2162,-87.62035 -162.9961,-162.99609 -7.2201,-75.37577 87.6203,-170.21617 162.9961,-162.9961 75.359,-7.21849 170.1748,87.57771 163.002,162.94531 h -0.049 v 94.47071 h 34.2305 v -94.4375 h 0.1406 c 5.1434,-96.19332 -101.1321,-202.46357 -197.3242,-197.30664 -3.0062,-0.16117 -6.0208,-0.21295 -9.043,-0.16016 z m 171.9961,668.48631 v 34.2305 h 34.2305 v -34.2305 z"
             style="fill:#00ff00;stroke:none;stroke-width:0.6414144" />
          <path
             sodipodi:nodetypes="ccccccccccccccccccccccccccccc"
             inkscape:connector-curvature="0"
             id="path5659"
             transform="scale(0.26458333)"
             d="m -1710.8438,488.57227 c -54.3187,-0.82077 -129.6681,77.379 -120.8203,129.375 -9.2829,54.55315 74.1148,137.95098 128.668,128.66796 0.012,0.002 0.024,0.004 0.035,0.006 v -0.006 h 503.1171 v -32.13085 h -503.1171 v -2.11719 h 0.2324 c -0.088,-0.0284 -0.18,-0.0487 -0.2676,-0.0781 -33.731,11.34588 -105.6857,-60.6108 -94.3398,-94.34179 -11.346,-33.731 60.6088,-105.68573 94.3398,-94.33985 33.731,-11.34591 105.6877,60.60885 94.3418,94.33985 0.048,0.14185 0.084,0.28844 0.1289,0.43164 v -0.44922 h 0.018 v 94.4375 h 34.2324 v -94.47071 h -0.045 c 9.2234,-54.55412 -74.1393,-137.89735 -128.6758,-128.61718 -2.5572,-0.43514 -5.1762,-0.66667 -7.8477,-0.70703 z m 104.4356,600.37693 v 34.2305 h 32.1328 v -34.2305 z"
             style="fill:#00ff00;stroke:none;stroke-width:0.6414144" />
        </g>
      </g>
    </g>
  </g>
</svg>
